<?xml version="1.0" standalone="no"?>
<!DOCTYPE svg PUBLIC "-//W3C//DTD SVG 1.1//EN" "http://www.w3.org/Graphics/SVG/1.1/DTD/svg11.dtd" >
<svg xmlns="http://www.w3.org/2000/svg" xmlns:xlink="http://www.w3.org/1999/xlink" version="1.1">
<metadata>
Created by FontForge 20201107 at Sun Jun  2 20:28:08 2024
 By Unknown
Copyright (c) 2024 Ambre Ruggeri and E'SAD Valence. All rights reserved.
</metadata>
<defs>
<font id="Bocalupo-Regular" horiz-adv-x="422" >
  <font-face 
    font-family="Bocalupo"
    font-weight="400"
    font-stretch="normal"
    units-per-em="1000"
    panose-1="0 0 0 0 0 0 0 0 0 0"
    ascent="750"
    descent="-250"
    x-height="500"
    cap-height="700"
    bbox="-163 -250 878 827"
    underline-thickness="50"
    underline-position="-125"
    unicode-range="U+000D-FB02"
  />
<missing-glyph horiz-adv-x="600" 
 />
    <glyph glyph-name="fi" unicode="fi" horiz-adv-x="431" 
d="M377 473q0 27 -18 27h-39h-121q-13 0 -15 30q-8 109 94 109q20 0 39 -7t29 -13.5t17.5 -10t10.5 3t3 27.5v34q0 10 -12.5 15.5t-41 8t-49 3t-61.5 0.5q-122 0 -122 -51v-121q-2 -28 -15 -28h-7.5h-7.5h-7.5h-7t-5.5 -0.5t-5 -1.5t-3.5 -2t-2.5 -2.5t-1 -3.5v-36
q0 -2 1 -3.5t2.5 -2.5t3.5 -2t5 -1.5t6 -0.5h6.5h6.5h7.5h6.5q7 0 12 -11.5t5 -20.5l21 78l-20 47l-1 -9l1 -415q0 -49 -21 -84q-7 -10 -2 -19.5t23 -9.5h93q13 0 20 8.5t1 20.5q-21 44 -21 107v215l-1 173v6l-1 7l-20 -47l21 -78l1 6q5 26 16 26h56l27 1q1 -4 1 -14v-19
l33 35q20 3 20 7v45q0 1 -18 1h-36q-2 0 -5 -0.5t-8 -4t-4 -10.5q0 -5 6.5 -16t8.5 -19l2 -5l34 2l3 3h-39q-50 -1 -51 -4q-1 -1 26 -2h11q7 0 12 -11.5t5 -20.5v-299q0 -49 -21 -84q-7 -10 -2 -19.5t23 -9.5h93q13 0 20 8.5t1 20.5q-21 44 -21 107v215z" />
    <glyph glyph-name="fl" unicode="fl" horiz-adv-x="441" 
d="M184 524v6l-1 7l-20 -47l21 -78l1 6zM199 500q-13 0 -15 30q-3 36 5 65t32 29q69 0 73 -21l1 -5l1 -12l-1 -152v-3v-318q0 -49 -21 -84q-7 -10 -2 -19.5t23 -9.5h93q13 0 20 8.5t1 20.5q-21 44 -21 107v215l-1 122v5q-2 22 -18 22q-1 -1 -7.5 0t-18 -2.5t-22 -9t-18 -20
t-8.5 -34.5q0 -27 1.5 -37.5t4 -13.5t9.5 2t16 11.5t25.5 13t35.5 6.5l-1 262v2q0 9 -3 15q-3 5 -8 5q-8 1 -51 -21q-24 -13 -33.5 -18t-16.5 -10.5t-5.5 -7t4 -5.5t7.5 -7t9.5 -12t5.5 -21q10 -17 30 -16.5t40.5 19.5t20.5 42v34v3q0 9 -3 15q-2 3 -8 5q-9 3 -30 3
t-81 -1.5t-120 -1.5q-21 0 -37 -15t-16 -36v-121q-2 -28 -15 -28h-7.5h-7.5h-7.5h-7t-5.5 -0.5t-5 -1.5t-3.5 -2t-2.5 -2.5t-1 -3.5v-36q0 -2 1 -3.5t2.5 -2.5t3.5 -2t5 -1.5t6 -0.5h6.5h6.5h7.5h6.5q7 0 12 -11.5t5 -20.5l21 78l-20 47l-1 -9l1 -415q0 -49 -21 -84
q-7 -10 -2 -19.5t23 -9.5h93q13 0 20 8.5t1 20.5q-21 44 -21 107v215v67q5 26 16 26h6.5h7.5h6.5h6.5t6 0.5t5 1.5t3.5 2t2.5 2.5t1 3.5v36q0 2 -1 3.5t-2.5 2.5t-3.5 2t-5 1.5t-5.5 0.5h-7h-7.5h-7.5h-7.5z" />
    <glyph glyph-name=".notdef" horiz-adv-x="600" 
 />
    <glyph glyph-name=".null" horiz-adv-x="0" 
 />
    <glyph glyph-name="nonmarkingreturn" horiz-adv-x="333" 
 />
    <glyph glyph-name="NULL" horiz-adv-x="600" 
 />
    <glyph glyph-name="CR" unicode="&#xd;" horiz-adv-x="600" 
 />
    <glyph glyph-name="space" unicode=" " horiz-adv-x="200" 
 />
    <glyph glyph-name="space" unicode="&#xa0;" horiz-adv-x="200" 
 />
    <glyph glyph-name="exclam" unicode="!" horiz-adv-x="149" 
d="M40 190q-16 0 -16 17l-12 465v5v5.5t0.5 5t1.5 5t2.5 3.5t4.5 3t7 1h94q5 0 8 -1.5t4.5 -3t2.5 -6t1 -6v-7.5v-5l-13 -462q0 -19 -16 -19h-69zM40 0q-16 0 -16 17v46q0 20 16 20h69q16 0 16 -19v-45q0 -19 -16 -19h-69z" />
    <glyph glyph-name="quotedbl" unicode="&#x22;" horiz-adv-x="264" 
d="M142 660q0 40 32 41q15 0 23 -5.5t6.5 -12.5t-10.5 -13q-18 -11 -15 -59q4 -19 37 -23h13q16 0 16 -17v-46q0 -20 -16 -20h-69q-16 0 -16 19v39zM40 505q-16 0 -16 19v39l-1 97q0 40 32 41q15 0 23 -5.5t6.5 -12.5t-10.5 -13q-18 -11 -15 -59q4 -19 37 -23h13
q16 0 16 -17v-46q0 -20 -16 -20h-69z" />
    <glyph glyph-name="numbersign" unicode="#" horiz-adv-x="646" 
d="M239 680q0 20 16 20h53q16 0 16 -19l-34 -181h133l34 180q0 20 16 20h53q16 0 16 -19l-34 -181h89q16 0 16 -19v-45q0 -19 -16 -19h-104l-26 -134h130q16 0 16 -19v-45q0 -19 -16 -19h-145l-34 -181q0 -19 -16 -19h-53q-16 0 -16 17l34 183h-133l-34 -181q0 -19 -16 -19
h-53q-16 0 -16 17l34 183h-83q-16 0 -16 17v46q0 20 16 20h99l25 134h-124q-16 0 -16 17v46q0 20 16 20h139zM249 283h134l25 134h-133z" />
    <glyph glyph-name="dollar" unicode="$" horiz-adv-x="517" 
d="M239 -61q-18 0 -18 14v47h-141q-21 0 -34 15t-13 36l1 77q0 9 6 13t14.5 1.5t14.5 -10.5q17 -22 38 -32t71 -10l43 2v282l-38 1q-69 0 -94 -10q-1 0 -6 -2.5t-7 -3t-6.5 -1.5t-7 -0.5t-5.5 1.5t-4 5t-1 9l-2 283q0 18 12 31t29 13h130v36q0 14 17 14h41q17 0 17 -14v-36
h125q17 0 29 -13.5t12 -31.5v-74q0 -14 -12 -14.5t-23 10.5q-46 43 -131 46v-160q31 -1 83 1.5t61 2.5q46 0 46 -35l1 -381q0 -21 -16 -36t-37 -15h-138v-47q0 -14 -15 -14h-42zM146 545q0 -57 75 -74v145q-75 -16 -75 -71zM296 106q96 32 96 132q0 98 -96 125v-257z" />
    <glyph glyph-name="percent" unicode="%" horiz-adv-x="610" 
d="M394 681q0 20 16 20h59q16 0 16 -19l-272 -662q0 -19 -16 -19h-59q-16 0 -16 17zM23 376q0 -10 7.5 -18t18.5 -8h166q10 0 17 7.5t7 18.5v297q0 11 -7.5 19t-17.5 8h-166q-10 0 -17.5 -8t-7.5 -19v-297zM83 527q0 119 50 119q25 0 36.5 -35t11.5 -84q0 -114 -48 -114
q-50 0 -50 114zM371 27q0 -11 7.5 -18.5t18.5 -7.5h166q10 0 17 7.5t7 18.5v297q0 11 -7.5 19t-17.5 8h-166q-10 0 -17.5 -8t-7.5 -19v-297zM434 174q0 119 50 119q25 0 36.5 -35t11.5 -84q0 -114 -48 -114q-50 0 -50 114z" />
    <glyph glyph-name="ampersand" unicode="&#x26;" horiz-adv-x="543" 
d="M81 -1q-21 0 -35.5 15t-14.5 36v183q0 14 5 28t18.5 30.5t21 25t30.5 30t29 27.5q-3 3 -19.5 17.5t-23 21l-17.5 17.5t-15.5 18.5t-4.5 13.5v184q0 22 14 38t34 16h259q20 0 32 -16t13 -38v-196q-24 -8 -46 -20.5t-49.5 -33t-38.5 -27.5l10 -5l104 -46q0 25 -4 44
t-9.5 25t-4.5 11t5 6.5t24 7.5q22 7 40 8q6 0 10 -1t7 -3.5t4.5 -6t2.5 -9.5t1 -12.5t-0.5 -16.5t-1 -20.5t-1 -25.5t-0.5 -30v-6l32 -2q22 -2 20 -48v-7q-1 -17 -13.5 -20.5t-39.5 3.5l-1 -165q0 -21 -13 -36t-34 -15h-330zM245 307l-32 14q-74 -68 -74 -138
q0 -48 28 -82.5t72 -34.5q47 0 78 15t45.5 42.5t20 54.5t5.5 64zM154 536q0 -53 65 -114q86 70 86 127q0 27 -19 53t-55 26q-32 0 -54.5 -20.5t-22.5 -71.5z" />
    <glyph glyph-name="quotesingle" unicode="'" horiz-adv-x="124" 
d="M79 505q-15 0 -23 5.5t-6.5 12.5t10.5 13q18 11 15 59q-4 19 -37 23h-13q-16 0 -16 17v46q0 20 16 20h69q16 0 16 -19v-39l1 -97q0 -40 -32 -41z" />
    <glyph glyph-name="parenleft" unicode="(" horiz-adv-x="245" 
d="M159 -161q-11 0 -17 19q-111 294 -111 459q0 47 6.5 92.5t20.5 92t24.5 76t31.5 81.5t29 72q6 19 16 19h69q9 0 14 -6.5t2 -13.5q-10 -25 -40 -97t-41 -105t-23.5 -93.5t-12.5 -119.5q0 -184 116 -459q3 -7 -2 -12t-14 -5h-68z" />
    <glyph glyph-name="parenright" unicode=")" horiz-adv-x="243" 
d="M17 -161q-9 0 -14 5t-2 12q54 128 85 235t31 213q0 48 -6 92.5t-20.5 92t-24.5 76t-33.5 85t-32.5 80.5q-3 7 2 13.5t14 6.5h69q10 0 16 -19q3 -9 28 -72t33 -87t24 -76.5t21.5 -97.5t5.5 -92q0 -69 -19 -155.5t-39 -145.5t-53 -147q-6 -19 -17 -19h-68z" />
    <glyph glyph-name="asterisk" unicode="*" horiz-adv-x="590" 
d="M255 686q0 14 8 14h74q8 0 8 -14l-6 -230l2 1l197 120q11 8 16 1l37 -65q3 -6 -8 -13l-204 -111q-4 -2 -5 -2l195 -107q14 -5 9 -13l-38 -65q-3 -5 -15 0l-185 114l6 -220q0 -14 -8 -14h-74q-8 0 -8 14l6 215l-181 -111q-12 -5 -15 0l-38 65q-5 8 9 13l195 107q-1 0 -5 2
l-204 111q-11 7 -8 13l37 65q5 7 16 -1l193 -118z" />
    <glyph glyph-name="plus" unicode="+" horiz-adv-x="401" 
d="M45 310q-14 0 -14 15v62q0 18 14 18h108v101q0 14 15 14h62q18 0 18 -14v-101h107q14 0 14 -17v-61q0 -17 -14 -17h-107v-114q0 -14 -17 -14h-61q-17 0 -17 14v114h-108z" />
    <glyph glyph-name="comma" unicode="," horiz-adv-x="154" 
d="M91 -113q-15 0 -23 5.5t-6.5 12.5t10.5 13q18 11 15 59q-4 19 -37 23h-13q-16 0 -16 17v46q0 20 16 20h69q16 0 16 -19v-39l1 -97q0 -40 -32 -41z" />
    <glyph glyph-name="hyphen" unicode="-" horiz-adv-x="239" 
d="M48 220q-14 0 -14 15v62q0 18 14 18h146q14 0 14 -17v-61q0 -17 -14 -17h-146z" />
    <glyph glyph-name="period" unicode="." horiz-adv-x="164" 
d="M50 0q-16 0 -16 17v46q0 20 16 20h69q16 0 16 -19v-45q0 -19 -16 -19h-69z" />
    <glyph glyph-name="slash" unicode="/" horiz-adv-x="235" 
d="M127 680q0 20 16 20h69q16 0 16 -19l-124 -662q0 -19 -16 -19h-69q-16 0 -16 17z" />
    <glyph glyph-name="zero" unicode="0" horiz-adv-x="490" 
d="M82 0q-21 0 -37 15t-16 36v594q0 21 15 38t36 17h332q20 0 34.5 -16.5t14.5 -38.5v-594q0 -21 -13 -36t-34 -15h-332zM245 62q34 0 58.5 24t37.5 66t19 89t6 102q0 76 -9.5 138t-38 109t-73.5 47t-73.5 -47t-38 -109t-9.5 -138q0 -55 6 -102t19 -89t37.5 -66t58.5 -24z
" />
    <glyph glyph-name="one" unicode="1" horiz-adv-x="213" 
d="M64 0q-18 0 -23 9.5t2 19.5q1 1 4 6t4 7.5t4 8t4 10.5t2.5 13t2 18t0.5 22v467q0 75 -26 86q-7 3 -8.5 11t4.5 15t18 7h61q21 0 33.5 -14.5t12.5 -35.5v-536q0 -20 2.5 -35.5t5 -22t7.5 -15.5t6 -12q13 -29 -21 -29h-95z" />
    <glyph glyph-name="two" unicode="2" horiz-adv-x="474" 
d="M82 0q-21 0 -37 15t-16 36l1 381q0 35 46 35q13 0 48 -1.5t61 -2.5t60.5 2t56.5 11t38 25.5t16 43.5q0 85 -131 85q-14 0 -27 -1.5t-25 -5.5t-20 -6.5t-19.5 -9t-16 -9.5l-16.5 -11l-15 -10q-32 -22 -32 4v74q0 18 12 31.5t29 13.5h292q17 0 29 -13t12 -31l-2 -283
q0 -5 -1 -9t-4 -5t-5.5 -1.5t-7 0.5t-6.5 1.5t-7 3t-6 2.5q-50 20 -94 20q-39 0 -69.5 -5.5t-61 -19.5t-47.5 -45t-17 -76q0 -46 17 -78t47.5 -49t63.5 -24t72 -7q12 0 22.5 1t19 3t15.5 4t14 5.5t11 6t10 7.5t8.5 7t8 7.5l7.5 7.5q6 6 12 8t10.5 -0.5t5.5 -9.5q1 -5 1 -77
q0 -21 -13 -36t-34 -15h-316z" />
    <glyph glyph-name="three" unicode="3" horiz-adv-x="446" 
d="M76 0q-21 0 -33.5 14.5t-12.5 35.5v24q0 23 6.5 33.5t15 9.5t15.5 -8q12 -13 46 -27t82 -14q62 0 94 33.5t32 73.5v234l19 49l9 -3l-5 14l5 14l-10 -3l-18 48v1q0 49 -35 76.5t-92 27.5q-42 0 -68.5 -6.5t-35.5 -13t-23 -21.5q-8 -8 -16.5 -9t-15 9.5t-6.5 33.5v24
q0 21 12.5 35.5t33.5 14.5h296q21 0 33 -14t12 -36l1 -596q0 -21 -15 -37.5t-36 -16.5h-290zM321 528q0 -20 -36 -27l-8 -1q-35 -5 29 -30q2 0 3 -1q-45 -17 -45 -25q1 -4 13 -6h-95q-18 0 -18 31t18 31l103 1h36v27zM277 438q44 -5 44 -29v29h-44zM309 469l31 -11l4 11
l-5 11z" />
    <glyph glyph-name="four" unicode="4" horiz-adv-x="445" 
d="M78 239q-21 0 -35 16.5t-14 37.5v353q0 22 14 38t35 16h68q12 0 15 -10.5t-4 -20.5q-42 -61 -42 -188q0 -175 113 -175q25 0 40.5 7.5t22 22.5t8 25.5t1.5 26.5v199q0 39 -28 86q-6 10 -2.5 18.5t15.5 8.5h71q16 0 26.5 -14t10.5 -32v-371q0 -6 -1 -9v-139q0 -63 21 -107
q6 -12 -1 -20.5t-20 -8.5h-93q-18 0 -23 9.5t2 19.5q21 35 21 84v104q-6 18 -43 23h-178z" />
    <glyph glyph-name="five" unicode="5" horiz-adv-x="448" 
d="M75 0q-21 0 -33.5 13.5t-12.5 34.5v24q0 41 16 40q8 -1 12 -11q8 -19 34.5 -28t50.5 -10.5t72 -1.5q60 0 85 41t25 142q0 189 -90 189h-140q-21 0 -37 15.5t-16 36.5l-1 57v107q0 21 16 36t37 15h224q21 0 33.5 -14.5t12.5 -35.5v-24q0 -23 -4.5 -32t-10 -7t-13.5 10
q-13 13 -23 20t-34 13.5t-59 6.5q-23 0 -37.5 -1t-24.5 -7.5t-14.5 -10t-7 -21t-2.5 -26v-38.5v-4q0 -24 44 -29h189q21 0 37 -15t16 -36v-395q0 -21 -16.5 -37.5t-34.5 -16.5h-293zM133 530v2v-2zM133 532v1v-1z" />
    <glyph glyph-name="six" unicode="6" horiz-adv-x="436" 
d="M78 -1q-21 0 -35 16.5t-14 37.5v596q0 21 16 36t37 15h224q21 0 33.5 -14.5t12.5 -35.5v-24q0 -23 -4.5 -32t-10 -7t-13.5 10q-13 13 -23 20t-34 13.5t-59 6.5q-62 0 -74 -16t-12 -80v-11v-1q0 -24 44 -29h188q21 0 37 -15t16 -36v-396q0 -21 -15 -37.5t-36 -16.5h-278z
M207 61q59 0 83.5 43t24.5 145q0 189 -90 189q-45 0 -74.5 -46.5t-29.5 -142.5v-143q0 -45 86 -45z" />
    <glyph glyph-name="seven" unicode="7" horiz-adv-x="452" 
d="M184 0q-26 0 -38 15t-10 40t6.5 43.5t11.5 37.5l149 423q11 40 -20 55t-90 15q-34 0 -70.5 -11t-55.5 -24q-16 -10 -27 -8t-11 16v54q0 18 12 31t29 13h293q42 0 54.5 -28t-2.5 -67l-142 -471q-2 -19 -3.5 -28.5t6 -24t11 -20.5t13.5 -19q11 -14 0.5 -28t-28.5 -14h-88z
" />
    <glyph glyph-name="eight" unicode="8" horiz-adv-x="490" 
d="M82 0q-21 0 -37 15t-16 36v594q0 21 15 38t36 17h332q20 0 34.5 -16.5t14.5 -38.5v-594q0 -21 -13 -36t-34 -15h-332zM245 62q65 0 93 53t28 130q0 50 -9.5 90t-38 70.5t-73.5 30.5t-73.5 -30.5t-38 -70.5t-9.5 -90q0 -77 28 -130t93 -53zM245 500q65 0 93 19.5t28 47.5
q0 30 -28 51t-93 21t-93 -21t-28 -51q0 -28 28 -47.5t93 -19.5z" />
    <glyph glyph-name="nine" unicode="9" horiz-adv-x="436" 
d="M82 209q-21 0 -37 15t-16 35v388q0 21 15 37t36 16h278q21 0 35 -16t14 -37v-597q0 -20 -16 -35t-37 -15h-224q-21 0 -33.5 14t-12.5 35v24q0 22 4.5 31t10 7t13.5 -10q13 -13 23.5 -20t34 -13t58.5 -6q22 0 36.5 2t24 8.5t14.5 12t7.5 21.5t3 26.5t0.5 36.5v11v1
q0 23 -44 28h-188zM211 270q45 0 74.5 45.5t29.5 139.5v140q0 44 -86 44q-59 0 -83.5 -42t-24.5 -142q0 -185 90 -185z" />
    <glyph glyph-name="colon" unicode=":" horiz-adv-x="268" 
d="M100 425q-14 0 -14 15v42q0 18 14 18h63q14 0 14 -17v-41q0 -17 -14 -17h-63zM100 0q-14 0 -14 15v42q0 18 14 18h63q14 0 14 -17v-41q0 -17 -14 -17h-63z" />
    <glyph glyph-name="semicolon" unicode=";" horiz-adv-x="268" 
d="M140 -113q-15 0 -23 5.5t-6.5 12.5t10.5 13q18 11 15 59q-4 19 -37 23h-13q-16 0 -16 17v46q0 20 16 20h69q16 0 16 -19v-39l1 -97q0 -40 -32 -41zM89 425q-14 0 -14 15v42q0 18 14 18h63q14 0 14 -17v-41q0 -17 -14 -17h-63z" />
    <glyph glyph-name="less" unicode="&#x3c;" horiz-adv-x="403" 
d="M310 500q18 0 30 -12.5t12 -28.5v-52q0 -13 -2.5 -15t-10.5 2t-19.5 8t-33 -0.5t-46.5 -20.5q-46 -30 -89.5 -68t-43.5 -57q0 -8 9 -19.5t27.5 -27.5t31.5 -26t37 -27.5t28 -20.5q22 -17 41.5 -22.5t30.5 -1.5t20 9.5t12.5 9.5t5.5 0t2 -21v-52q0 -16 -12 -28.5
t-30 -12.5h-13q-31 0 -96.5 51t-117.5 110t-52 81q0 24 52.5 83t117.5 109t96 50h13z" />
    <glyph glyph-name="equal" unicode="=" horiz-adv-x="386" 
d="M39 334q-14 0 -14 15v62q0 18 14 18h310q14 0 14 -17v-61q0 -17 -14 -17h-310zM39 190q-14 0 -14 15v62q0 18 14 18h310q14 0 14 -17v-61q0 -17 -14 -17h-310z" />
    <glyph glyph-name="greater" unicode="&#x3e;" horiz-adv-x="428" 
d="M111 500q31 0 96 -50t117.5 -109t52.5 -83q0 -22 -52 -81t-117.5 -110t-96.5 -51h-13q-18 0 -30 12.5t-12 28.5v52q0 19 2 21.5t10 -3.5t19 -13t33 -3t48 24q4 3 28 20.5t37 27.5t31.5 26t27.5 27.5t9 19.5q0 19 -43.5 57t-89.5 68q-21 14 -40 19.5t-30 3.5t-20 -5.5
t-13.5 -6t-6.5 0t-2 14.5v52q0 16 12 28.5t30 12.5h13z" />
    <glyph glyph-name="question" unicode="?" horiz-adv-x="426" 
d="M145 0q-16 0 -16 17v46q0 20 16 20h69q16 0 16 -19v-45q0 -19 -16 -19h-69zM154 195q-15 0 -16 17l-12 144v5v5.5t0.5 5t1.5 5t2.5 3.5t4.5 3t7 1h84h3q26 4 42.5 15.5t23.5 30.5t8.5 33.5t1.5 38.5q0 72 -28.5 102.5t-101.5 30.5q-51 0 -74 -7.5t-42 -25.5
q-10 -10 -18.5 -9.5t-9.5 11.5l-1 45q0 21 13 36t34 15h266q22 0 37 -11.5t15 -31.5l1 -287q0 -21 -16 -36t-37 -15h-63q-40 -5 -44 -27v-2v-1l-7 -75q-2 -19 -16 -19h-59z" />
    <glyph glyph-name="at" unicode="@" horiz-adv-x="585" 
d="M25 39v422q0 15 10 26.5t25 11.5h459q18 0 30 -14t12 -32v-9v-402q0 -15 -10.5 -26.5t-24.5 -11.5h-121q-18 0 -30 14t-12 33v18q0 21 -37 26h-151q-18 0 -30 13.5t-12 31.5v131q0 24 27.5 47t67.5 38.5t75.5 25.5t59.5 14q0 1 20.5 1.5t41 -1t20.5 -5.5v-259
q0 -56 5 -60q2 -2 6 -2q6 0 10.5 1.5t7 4.5t4.5 5.5t2.5 7.5t0.5 7v7.5v6.5l-2 262q0 62 -161 62q-58 0 -101 -8t-64 -18.5t-33.5 -25t-15 -24t-2.5 -18.5q0 -8 2.5 -93.5t2.5 -128.5q0 -12 4 -21t12.5 -15.5t17.5 -11t24 -7.5t27 -4.5t30 -2t30 -0.5t31 0.5t29 0.5
q8 0 14 -16.5t4.5 -32.5t-10.5 -16h-253q-18 0 -30 14t-12 33zM281 146q32 0 57 25.5t25 65.5v19.5v20v18.5t-1 17t-3 12.5t-5.5 9.5t-8.5 3q-34 0 -80 -39.5t-46 -82.5q0 -32 17.5 -50.5t44.5 -18.5z" />
    <glyph glyph-name="A" unicode="A" horiz-adv-x="519" 
d="M363 0q-12 0 -15.5 8.5t2.5 18.5q43 72 43 129v110q0 21 -24 21h-202q-8 0 -13 -5.5t-5.5 -9.5t-2.5 -15q0 -135 45 -230q5 -11 1.5 -19t-14.5 -8h-93q-29 0 -37 46q-22 121 8.5 271.5t64.5 212.5q48 100 -27 100q-11 0 -18.5 -2t-10 -3.5t-8 -8.5t-7.5 -9
q-8 -9 -14.5 -7t-6.5 13v43q0 17 12 30.5t29 13.5h379q17 0 29 -13t12 -31v-610q0 -18 -10 -32t-27 -14h-90zM155 370q-2 -18 10 -18h202q26 0 26 19q0 9 1 36t1 46.5t-1.5 48t-7 49t-14.5 40t-26 29.5t-39 10q-21 0 -37 -7t-30.5 -26.5t-20 -29.5t-20.5 -39
q-26 -53 -42 -146v-1z" />
    <glyph glyph-name="B" unicode="B" horiz-adv-x="513" 
d="M82 0q-21 0 -37 15t-16 36v594q0 21 15 37.5t36 16.5h340q21 0 35 -16.5t14 -37.5v-63q0 -50 -21.5 -87.5t-79.5 -83.5q7 -8 31 -28t40 -36t30.5 -46t14.5 -64v-186q0 -21 -16 -36t-37 -15h-349zM239 79q131 0 131 130q0 32 -11 59.5t-41.5 62t-56.5 58.5t-84 75
q-6 5 -5 15t11 39q3 3 7 3.5t13.5 -3.5t18 -8t21 -11t21.5 -12.5t19.5 -12.5t15.5 -10.5t10 -6.5q36 43 36.5 81t-30 64t-76.5 26q-26 0 -45 -7.5t-31.5 -25t-20.5 -39t-12 -58t-5 -72.5t-1 -92q0 -57 2 -92.5t8.5 -70t19 -52.5t33.5 -29t52 -11z" />
    <glyph glyph-name="C" unicode="C" horiz-adv-x="464" 
d="M82 0q-21 0 -37 15t-16 36l1 597q0 21 16 36t37 15h306q21 0 34 -15t13 -36q0 -78 -1 -83q-1 -7 -5.5 -9.5t-10.5 -0.5t-12 8q-67 64 -142 64q-36 0 -63 -20.5t-41.5 -50t-23 -71t-11 -73t-2.5 -65.5q0 -22 2 -49.5t11 -69.5t23 -75t41 -57t63 -24q75 0 142 64q6 6 12 8
t10.5 -0.5t5.5 -9.5q1 -5 1 -83q0 -21 -13 -36t-34 -15h-306z" />
    <glyph glyph-name="D" unicode="D" horiz-adv-x="511" 
d="M82 0q-21 0 -37 15t-16 36v594q0 21 15 37.5t36 16.5h217q24 0 55.5 -29t60.5 -77t49 -120.5t20 -149.5v-272q0 -21 -13.5 -36t-34.5 -15h-352zM255 62q38 0 64.5 24t40.5 66t20 88.5t6 102.5q0 106 -58.5 200t-134.5 94q-28 0 -49 -18.5t-21 -41.5l1 -234v-33
q0 -27 -0.5 -53.5t2.5 -51t7 -46t14 -39.5t23.5 -31t35 -20t49.5 -7z" />
    <glyph glyph-name="E" unicode="E" horiz-adv-x="472" 
d="M66 0q-17 0 -27 13t-10 31v612q0 18 12 31t29 13h349q13 0 19.5 -3.5t4.5 -13.5t-5.5 -17.5t-13.5 -26.5q-16 -31 -25 -42t-21 -8.5t-24.5 11t-42.5 17t-68 8.5q-88 0 -112 -54q-15 -35 5 -60q10 -11 23 -11h233q21 0 34 -15t13 -36l-1 -43q0 -18 -4 -19.5t-17 6.5
q-18 10 -32.5 16.5t-50.5 14.5t-78 8q-70 0 -101 -55.5t-31 -136.5q-1 -69 39.5 -114t88.5 -45q24 0 45 2.5t38 8t29.5 10.5t25 12.5t18 11.5t14.5 11q11 10 15 9t4 -17v-92q0 -20 -9.5 -28.5t-31.5 -8.5h-334z" />
    <glyph glyph-name="F" unicode="F" horiz-adv-x="460" 
d="M66 -2q-17 0 -27 14t-10 32v612q0 18 12 31t29 13h330q26 0 29.5 -15t-9.5 -46q-14 -37 -23 -49.5t-21 -9t-25 13.5t-43.5 20.5t-68.5 10.5q-86 0 -111 -60q-16 -40 3 -69q10 -15 24 -15h231q42 0 42 -38l-1 -175q0 -45 -47 -9q-18 14 -21.5 23.5t2.5 15t13.5 16.5
t7.5 25q0 38 -40.5 57.5t-89.5 19.5q-68 0 -98 -26.5t-30 -56.5v-163q0 -42 14 -82.5t29 -62.5q7 -9 3 -18t-16 -9h-88z" />
    <glyph glyph-name="G" unicode="G" horiz-adv-x="474" 
d="M82 0q-21 0 -37 15t-16 36v594q0 21 15 37.5t36 16.5h296q21 0 35 -16.5t14 -37.5v-85q-1 -19 -14.5 -18.5t-24.5 14.5q-24 32 -47.5 47t-65.5 15q-41 0 -70 -15.5t-45.5 -38.5t-26 -60.5t-12 -72t-2.5 -81.5q0 -59 6 -103t20 -82.5t42.5 -59t69.5 -20.5q44 0 76 49
t32 106q0 75 -23.5 119t-71.5 43q-36 0 -65 -29q-5 -7 -14 -3t-9 19q0 37 9 65q8 26 38 26h166q22 0 34.5 -12t15 -26t2.5 -35v-356q0 -21 -13 -36t-34 -15h-316z" />
    <glyph glyph-name="H" unicode="H" horiz-adv-x="511" 
d="M372 0q-13 0 -21.5 10t0.5 19q34 32 34 107v215v36q-4 25 -21 25h-218q-18 0 -20 -25v-36v-215q0 -75 34 -107q9 -9 0.5 -19t-21.5 -10h-82q-26 0 -26 53l-2 594q0 53 26 53h77q14 0 22 -9.5t-1 -19.5q-11 -10 -16 -18t-9 -30.5t-4 -60.5l1 -62q4 -23 20 -23h221
q16 0 20 23l1 62q0 38 -4 60.5t-9 30.5t-16 18q-9 10 -1 19.5t22 9.5h77q26 0 26 -53l-2 -594q0 -53 -26 -53h-82z" />
    <glyph glyph-name="I" unicode="I" horiz-adv-x="187" 
d="M46 0q-18 0 -23 9.5t2 19.5q1 1 4 6t4 7.5t4 8t4 10.5t2.5 13t2 18t0.5 22v471q0 51 -21 86q-7 10 -2 19.5t23 9.5h95q13 0 20 -8.5t1 -20.5q-21 -44 -21 -109v-448q0 -20 2.5 -35.5t5 -22t7.5 -15.5t6 -12q13 -29 -21 -29h-95z" />
    <glyph glyph-name="J" unicode="J" horiz-adv-x="498" 
d="M70 0q-17 0 -29 13t-12 31v222q0 16 7.5 20t17.5 0.5t26 -13.5q37 -22 45 -34t-1 -17t-22 -17t-13 -30q0 -43 32.5 -75.5t102.5 -32.5q44 0 84 26.5t40 71.5l2 97v5v318q0 51 -21 86q-7 10 -2 19.5t23 9.5h95q13 0 20 -8.5t1 -20.5q-21 -44 -21 -109v-215l-1 -121l1 -182
q0 -18 -12 -31t-29 -13h-334z" />
    <glyph glyph-name="K" unicode="K" horiz-adv-x="510" 
d="M98 0q-16 0 -26.5 14t-10.5 32v507v37q0 17 -11 29.5t-17.5 17t3.5 15t47 30.5q17 9 28.5 14t23 7.5t17.5 -3t6 -18.5l-3 -245v-32q-1 -57 63 -12q61 41 120 122q22 31 33 54q10 22 14 58.5t-2 46.5q-5 10 -1.5 18.5t14.5 8.5h64q27 0 20 -76q-3 -79 -34 -129t-88 -98
q112 -123 118 -265l4 -87q1 -18 -9.5 -32t-27.5 -14h-79q-11 0 -14.5 8t1.5 19q26 61 4.5 161.5t-66.5 151.5l3 2q-75 -57 -134 -74l-1 -116q0 -53 43 -125q6 -10 2.5 -18.5t-15.5 -8.5h-89zM314 152h-1h1zM319 604h1h-1z" />
    <glyph glyph-name="L" unicode="L" horiz-adv-x="474" 
d="M70 0q-17 0 -29 13t-12 31v610q0 18 10 32t27 14h89q12 0 15.5 -8.5t-2.5 -18.5q-1 -2 -8.5 -13t-12.5 -19.5t-11 -23.5t-9 -34.5t-3 -42.5v-375q0 -32 38.5 -65t76.5 -33q71 0 108.5 33.5t37.5 74.5q0 18 -13 30t-22 17t-1 17t45 34q16 10 26 13.5t17.5 -0.5t7.5 -20
v-222q0 -18 -12 -31t-29 -13h-334zM189 479h1h-1z" />
    <glyph glyph-name="M" unicode="M" horiz-adv-x="834" 
d="M81 0q-23 0 -37.5 19.5t-14.5 44.5v574q0 25 17 43.5t41 18.5h320h5h4h320q29 0 49 -22.5t20 -53.5l-8 -197q-6 -180 -46 -350q-3 -13 0.5 -27t7.5 -22t3 -15t-14.5 -10t-43.5 -3h-62q-17 0 -21 14.5t6 28.5q71 108 71 318q0 121 -10 166q-26 111 -121 111q-84 0 -94 -92
l-2 -46l-3 -73q-9 -251 -32 -350q-3 -13 0.5 -27t7.5 -22t3 -15t-14.5 -10t-43.5 -3h-67q-17 0 -21 14.5t6 28.5q71 108 71 318v48.5t-2.5 49.5t-7 55t-14.5 46t-24 42t-36.5 25t-51.5 11q-100 0 -100 -147v-333q0 -28 7.5 -54t12.5 -34.5t19 -31.5q23 -38 -6 -38h-94z" />
    <glyph glyph-name="N" unicode="N" horiz-adv-x="517" 
d="M81 0q-23 0 -37.5 19.5t-14.5 44.5v574q0 25 17 43.5t41 18.5h332q29 0 49 -22.5t20 -53.5l-8 -197q-6 -180 -46 -350q-3 -13 0.5 -27t7.5 -22t3 -15t-14.5 -10t-43.5 -3h-56q-17 0 -21 14.5t6 28.5q71 108 71 318q0 35 -3.5 68.5t-14 73t-27.5 68t-47.5 48t-70.5 19.5
q-100 0 -100 -147v-333q0 -28 7.5 -54t12.5 -34.5t19 -31.5q23 -38 -6 -38h-76z" />
    <glyph glyph-name="O" unicode="O" horiz-adv-x="490" 
d="M82 1q-21 0 -37 15t-16 36v594q0 21 15 38t36 17h332q20 0 34.5 -16.5t14.5 -38.5v-594q0 -21 -13 -36t-34 -15h-332zM245 63q34 0 58.5 24t37.5 66t19 89t6 102q0 76 -9.5 138t-38 109t-73.5 47t-73.5 -47t-38 -109t-9.5 -138q0 -55 6 -102t19 -89t37.5 -66t58.5 -24z
" />
    <glyph glyph-name="P" unicode="P" horiz-adv-x="513" 
d="M149 233v-119q0 -20 2.5 -35.5t5 -22t7.5 -15.5t6 -12q13 -29 -21 -29h-95q-18 0 -23 9.5t2 19.5q1 1 4 6t4 7.5t4 8t4 10.5t2.5 13t2 18t0.5 22v541v8v8.5t0.5 7.5t1.5 7t2.5 5.5t4.5 5t7 2.5t9 1h354q21 0 35 -16t14 -38l1 -132q0 -37 -12 -68t-32.5 -52t-41.5 -36.5
t-43 -29.5q-6 -3 -9 -5q-69 -43 -196 -90zM149 365q0 -91 126 8q31 24 64 56t44 66t2 59.5t-30.5 44.5t-51.5 25q-13 6 -38.5 3.5t-51 -9.5t-45 -37.5t-19.5 -79.5v-136z" />
    <glyph glyph-name="Q" unicode="Q" horiz-adv-x="490" 
d="M82 1q-21 0 -37 15t-16 36v594q0 21 15 38t36 17h332q20 0 34.5 -16.5t14.5 -38.5v-594q0 -21 -13 -36t-34 -15h-67q17 -31 8 -82q-4 -23 -19 -23h-77q-13 0 -7 13q28 60 15 92h-185zM245 63q34 0 58.5 24t37.5 66t19 89t6 102q0 76 -9.5 138t-38 109t-73.5 47t-73.5 -47
t-38 -109t-9.5 -138q0 -55 6 -102t19 -89t37.5 -66t58.5 -24z" />
    <glyph glyph-name="R" unicode="R" horiz-adv-x="492" 
d="M66 -2q-17 0 -27 14t-10 32v612q0 18 12 31t29 13h337q21 0 35 -16t14 -38l1 -145q1 -93 -87 -159q83 -100 88 -209l4 -87q1 -18 -9.5 -32t-27.5 -14h-66q-11 0 -14.5 8t1.5 19q23 57 8 135.5t-54 135.5q-83 -46 -177 -80v-68q0 -53 43 -125q6 -10 2.5 -18.5t-15.5 -8.5
h-87zM123 341q0 -91 126 7q33 25 66 57t44 70t2 68.5t-31 53t-51 28.5q-13 6 -38.5 3.5t-51 -9.5t-45 -37.5t-19.5 -79.5q0 -34 -1 -84.5t-1 -76.5z" />
    <glyph glyph-name="S" unicode="S" horiz-adv-x="512" 
d="M76 0q-21 0 -34 15t-13 36l1 77q0 9 6 13t14.5 1.5t14.5 -10.5q17 -22 38 -32t71 -10q214 0 214 148q0 36 -13.5 62.5t-33.5 40.5t-50.5 22t-54.5 10t-57 2q-69 0 -94 -10q-1 0 -6 -2.5t-7 -3t-6.5 -1.5t-7 -0.5t-5.5 1.5t-4 5t-1 9l-2 283q0 18 12 31t29 13h330
q17 0 29 -13.5t12 -31.5v-74q0 -14 -12 -14.5t-23 10.5q-23 21 -62 33.5t-79 12.5q-21 0 -41 -2.5t-44.5 -10t-39.5 -24t-15 -41.5q0 -31 21 -50t61 -25t72 -7t80.5 1.5t59.5 2.5q46 0 46 -35l1 -381q0 -21 -16 -36t-37 -15h-354z" />
    <glyph glyph-name="T" unicode="T" horiz-adv-x="518" 
d="M196 0q-18 0 -23 9.5t2 19.5q1 2 8 12.5t11 17.5t9 19t7.5 26.5t2.5 30.5v450q0 61 -68 40q-51 -15 -89 -52l-5 -5q-8 -9 -14.5 -7t-6.5 13l-1 83q0 43 34 43h393q33 0 33 -47v-79q0 -11 -6.5 -13t-14.5 7q-31 34 -82 53q-73 20 -78 -37l-1 -449q0 -25 6.5 -45t19 -39.5
t13.5 -21.5q6 -12 -1 -20.5t-20 -8.5h-129z" />
    <glyph glyph-name="U" unicode="U" horiz-adv-x="517" 
d="M98 0q-29 0 -49 22.5t-20 53.5l8 197q6 180 46 350q3 13 -0.5 27t-7.5 22t-3 15t14.5 10t43.5 3h56q17 0 21 -14.5t-6 -28.5q-71 -108 -71 -318q0 -35 3.5 -68.5t14 -73t27.5 -68t47.5 -48t70.5 -19.5q100 0 100 147v333q0 28 -7.5 54t-12.5 34.5t-19 31.5q-23 38 6 38
h76q23 0 37.5 -19.5t14.5 -44.5v-574q0 -25 -17 -43.5t-41 -18.5h-332z" />
    <glyph glyph-name="V" unicode="V" horiz-adv-x="535" 
d="M359 0q-95 0 -160.5 31.5t-102 94.5t-52 145t-15.5 195v156q0 31 20.5 54.5t50.5 23.5h79q18 0 22.5 -16t-6.5 -28q-17 -21 -28.5 -45.5t-17.5 -42t-9 -53t-3.5 -50t0 -63.5t0.5 -65q0 -108 60.5 -174.5t118.5 -66.5q85 0 85 118v323q0 29 -8 55.5t-13.5 36.5t-19.5 33
q-9 14 -3 26t22 12h73q24 0 39 -20t15 -46v-570q0 -26 -17.5 -45t-42.5 -19h-87z" />
    <glyph glyph-name="W" unicode="W" horiz-adv-x="907" 
d="M359 0q-95 0 -160.5 31.5t-102 94.5t-52 145t-15.5 195v156q0 31 20.5 54.5t50.5 23.5h79q18 0 22.5 -16t-6.5 -28q-17 -21 -28.5 -45.5t-17.5 -42t-9 -53t-3.5 -50t0 -63.5t0.5 -65q0 -108 60.5 -174.5t118.5 -66.5q85 0 85 118v408q0 31 20.5 54.5t50.5 23.5h79
q18 0 22.5 -16t-6.5 -28q-17 -21 -28.5 -45.5t-17.5 -42t-9 -53t-3.5 -50t0 -63.5t0.5 -65q0 -108 60.5 -174.5t118.5 -66.5q85 0 85 118v323q0 29 -8 55.5t-13.5 36.5t-19.5 33q-9 14 -3 26t22 12h73q24 0 39 -20t15 -46v-570q0 -26 -17.5 -45t-42.5 -19h-87h-372z" />
    <glyph glyph-name="X" unicode="X" horiz-adv-x="500" 
d="M53 0q-29 0 -19 46q16 78 58.5 193.5t93.5 220.5q-73 125 -101 125q-7 0 -16 -4.5t-15.5 -8.5t-12.5 -6.5t-9 2.5t-3 18v63q0 21 13.5 36t42.5 15h50q42 0 115 -120q73 120 115 120h50q29 0 42.5 -15t13.5 -36v-63q0 -13 -3 -18t-9 -2.5t-12.5 6.5t-15.5 8.5t-16 4.5
q-28 0 -101 -125q51 -105 93.5 -220.5t58.5 -193.5q10 -46 -19 -46h-90q-18 0 -18 54q-1 32 -27 116t-62 166q-36 -82 -62 -166t-27 -116q0 -54 -18 -54h-90z" />
    <glyph glyph-name="Y" unicode="Y" horiz-adv-x="471" 
d="M70 0q-41 0 -41 34v165q0 16 7.5 20t17.5 0.5t26 -13.5q30 -19 37 -30.5t-0.5 -17t-17.5 -19t-10 -31.5q0 -42 102 -42q40 0 61.5 3t44 16t31.5 41.5t9 75.5v7q0 25 -44 30h-215q-21 0 -35 16.5t-14 37.5v353q0 22 14 38t35 16h87q12 0 15 -10.5t-4 -20.5
q-54 -79 -54 -188q0 -64 37 -119.5t106 -55.5q25 0 40.5 7.5t22 22.5t8 25.5t1.5 26.5v199q0 39 -28 86q-6 10 -2.5 18.5t15.5 8.5h65q24 0 39.5 -20t15.5 -45v-584q0 -22 -22 -36.5t-49 -14.5h-301z" />
    <glyph glyph-name="Z" unicode="Z" horiz-adv-x="496" 
d="M70 0q-17 0 -29 13t-12 31v53q0 11 19 44t57.5 88.5t71 100.5t85.5 117.5t74 102.5q21 29 -31 47q-40 14 -108 14q-71 0 -127 -44q-9 -7 -18 -9t-14.5 0.5t-5.5 8.5v89q0 18 12 31t29 13h353q17 0 29 -13t12 -31v-54q0 -17 -50.5 -90.5t-133 -186t-123.5 -175.5
q-20 -31 35 -49q39 -12 104 -12q21 0 38.5 2.5t31.5 8.5t21 9.5t20 12.5t16 11q11 7 19.5 9t13.5 -0.5t5 -8.5v-89q0 -18 -12 -31t-29 -13h-353z" />
    <glyph glyph-name="bracketleft" unicode="[" horiz-adv-x="329" 
d="M34 706q0 18 12 31t29 13h177q17 0 29.5 -13.5t12.5 -30.5v-43q0 -11 -6.5 -13t-14.5 7q-14 15 -34 19t-62 3h-3q-44 -5 -44 -29v-707q0 -24 44 -29h3q42 -1 62 3t34 19q8 9 14.5 7t6.5 -13v-43q0 -17 -12.5 -30.5t-29.5 -13.5h-177q-17 0 -29 13t-12 31v819z" />
    <glyph glyph-name="backslash" unicode="\" horiz-adv-x="221" 
d="M224 17q0 -17 -16 -17h-69q-16 0 -16 19l-124 662q0 19 16 19h69q16 0 16 -20z" />
    <glyph glyph-name="bracketright" unicode="]" horiz-adv-x="329" 
d="M294 -113q0 -18 -12 -31t-29 -13h-177q-17 0 -29.5 13.5t-12.5 30.5v43q0 11 6.5 13t14.5 -7q14 -15 34 -19t62 -3h3q44 5 44 29v707q0 24 -44 29h-3q-42 1 -62 -3t-34 -19q-8 -9 -14.5 -7t-6.5 13v43q0 17 12.5 30.5t29.5 13.5h177q17 0 29 -13t12 -31v-819z" />
    <glyph glyph-name="underscore" unicode="_" horiz-adv-x="444" 
d="M2 -68q0 18 14 18h414q14 0 14 -17v-61q0 -17 -14 -17h-414q-14 0 -14 15v62z" />
    <glyph glyph-name="grave" unicode="`" horiz-adv-x="281" 
d="M200 640q0 -15 -12 -15h-45q-15 0 -25 5t-12.5 8.5t-10.5 14.5q-21 33 -19.5 40.5t25.5 7.5l87 -1q12 0 12 -18v-42z" />
    <glyph glyph-name="a" unicode="a" 
d="M78 0q-21 0 -35 16t-14 38v153q0 28 32.5 55t79 45t88.5 30t69 15q0 77 -124 77q-50 0 -82 -35q-7 -8 -16 -10t-15.5 1t-6.5 9v62q0 18 12 31t29 13h249q21 0 35 -16t14 -38v-402q0 -18 -12 -31t-29 -13h-274zM201 60q39 0 68 29.5t29 77.5v22.5v24v21t-1.5 20t-4 15
t-6.5 11t-9 3.5q-40 0 -94 -46t-54 -97q0 -38 20.5 -59.5t51.5 -21.5z" />
    <glyph glyph-name="b" unicode="b" horiz-adv-x="448" 
d="M96 0q-17 0 -29 13t-12 31v402q0 9 1 13v29v46.5v51.5q0 17 -10 29.5t-15 17.5t5.5 15.5t48.5 30.5q18 10 28 14.5t21 7t15.5 -3.5t4.5 -19v-148q0 -25 44 -30h170q21 0 36 -16.5t15 -37.5v-395q0 -21 -16 -36t-37 -15h-270zM237 62q90 0 90 188q0 102 -24.5 145
t-83.5 43q-27 0 -49.5 -16t-22.5 -29v-143q0 -188 90 -188z" />
    <glyph glyph-name="c" unicode="c" horiz-adv-x="413" 
d="M82 0q-21 0 -37 15t-16 36l1 406q0 20 15 31.5t37 11.5h263q21 0 34 -15t13 -36q0 -38 -1 -43q-1 -7 -5.5 -9.5t-10.5 -0.5t-12 8q-19 18 -42 25.5t-74 7.5q-35 0 -59.5 -11t-37.5 -26.5t-20 -43t-8.5 -49.5t-1.5 -56q0 -188 128 -188q34 0 57.5 6t33.5 13t25 21
q6 6 12 8t10.5 -0.5t5.5 -9.5q1 -5 1 -50q0 -21 -13 -36t-34 -15h-264z" />
    <glyph glyph-name="d" unicode="d" 
d="M82 0q-21 0 -37 15t-16 36v395q0 21 15 37.5t36 16.5h175q40 0 40 63q0 28 -13.5 45.5t-21 21.5t4 14.5t59.5 35.5q18 10 28 14.5t21 7t15.5 -3.5t4.5 -19v-635q0 -18 -12 -31t-29 -13h-270zM211 62q90 0 90 188v143q0 13 -22.5 29t-49.5 16q-59 0 -83.5 -43t-24.5 -145
q0 -188 90 -188z" />
    <glyph glyph-name="e" unicode="e" 
d="M82 0q-21 0 -37 15t-16 36v395q0 21 15 37.5t36 16.5h264q21 0 35 -16t14 -38v-140q0 -34 -20 -42q-8 -3 -18 -5t-28 -2.5t-30.5 -0.5h-41.5h-44h-13h-26.5t-20.5 -2.5t-17 -7t-9 -13.5t-4 -23q0 -147 127 -147q34 0 57.5 6t33.5 13t25 21q6 6 12 8t10.5 -0.5t5.5 -9.5
q1 -5 1 -26v-24q0 -21 -13 -36t-34 -15h-264zM211 313h19.5h17h13.5t12 1t9 2.5t7.5 4t5 5.5t4 7.5t1.5 10.5t1 14q0 27 -25.5 53.5t-64.5 26.5t-65 -27.5t-26 -53.5q0 -9 0.5 -15t3 -11t4.5 -8t7.5 -5t8.5 -3t12.5 -1.5t14.5 -0.5h18.5h21.5z" />
    <glyph glyph-name="f" unicode="f" horiz-adv-x="272" 
d="M84 0q-18 0 -23 9.5t2 19.5q21 35 21 84l-1 301v-2q0 9 -5 20.5t-12 11.5h-6.5h-7.5h-6.5h-6.5t-6 0.5t-5 1.5t-3.5 2t-2.5 2.5t-1 3.5v36q0 2 1 3.5t2.5 2.5t3.5 2t5 1.5t5.5 0.5h7h7.5h7.5h7.5q13 0 15 28v121q0 21 16 36t37 15q164 0 164 -27v-34q0 -26 -4.5 -32.5
t-12.5 -2t-28.5 12t-41.5 7.5q-24 0 -32 -29t-5 -65q2 -30 15 -30h7.5h7.5h7.5h7t5.5 -0.5t5 -1.5t3.5 -2t2.5 -2.5t1 -3.5v-36q0 -2 -1 -3.5t-2.5 -2.5t-3.5 -2t-5 -1.5t-6 -0.5h-6.5h-6.5h-7.5h-6.5q-11 0 -16 -26v-67v-215q0 -63 21 -107q6 -12 -1 -20.5t-20 -8.5h-93z
" />
    <glyph glyph-name="g" unicode="g" 
d="M70 -250q-41 0 -41 34v151q0 16 7.5 20t17.5 0.5t26 -13.5q26 -16 32 -24.5t0 -13t-14.5 -17t-8.5 -30.5q0 -20 16 -30.5t67 -10.5q39 0 58.5 3t38 16t25 41t6.5 76v18q0 25 -44 30h-174q-21 0 -37 15t-16 36v395q0 21 15 37.5t36 16.5h264q21 0 35 -16t14 -38v-645
q0 -21 -16 -36t-37 -15h-270zM211 62q90 0 90 188v143q0 13 -22.5 29t-49.5 16q-59 0 -83.5 -43t-24.5 -145q0 -188 90 -188z" />
    <glyph glyph-name="h" unicode="h" horiz-adv-x="448" 
d="M92 0q-16 0 -26.5 14t-10.5 32v410v4q0 9 0.5 50.5t0.5 76.5q0 17 -10 29.5t-15 17.5t5.5 15.5t48.5 30.5q44 24 54 21q9 -3 9 -22v-149q0 -25 44 -30h178q21 0 35 -16t14 -38v-392q0 -22 -14 -38t-35 -16h-68q-12 0 -15 10.5t4 20.5q42 61 42 227q0 175 -113 175
q-25 0 -40.5 -7.5t-22 -22.5t-8 -25.5t-1.5 -26.5v-238q0 -39 28 -86q6 -10 2.5 -18.5t-15.5 -8.5h-71z" />
    <glyph glyph-name="i" unicode="i" horiz-adv-x="184" 
d="M46 0q-18 0 -23 9.5t2 19.5q21 35 21 84v318q0 17 -8.5 33.5t-9.5 20.5q-1 7 3.5 10.5t8.5 4.5h5h75q18 0 18 -27l1 -122v-215q0 -63 21 -107q6 -12 -1 -20.5t-20 -8.5h-93zM61 622q-14 0 -14 15v42q0 18 14 18h63q14 0 14 -17v-41q0 -17 -14 -17h-63z" />
    <glyph glyph-name="j" unicode="j" horiz-adv-x="155" 
d="M-122 -250q-41 0 -41 34v149q0 12 7 16.5t18.5 2t25.5 -11.5q29 -19 37 -30t1 -15.5t-16.5 -14t-9.5 -20.5q0 -23 20.5 -33.5t47.5 -10.5q38 0 55.5 34.5t17.5 113.5v467q0 17 -8.5 33.5t-9.5 20.5q-1 7 3.5 10.5t9.5 4.5h4h75q18 0 18 -27l1 -122v-215v-15v-9v-311
q0 -21 -16 -36t-37 -15h-203zM57 622q-14 0 -14 15v42q0 18 14 18h63q14 0 14 -17v-41q0 -17 -14 -17h-63z" />
    <glyph glyph-name="k" unicode="k" horiz-adv-x="460" 
d="M98 -2q-16 0 -26.5 14t-10.5 32v507v37q0 17 -11 29.5t-17.5 17t3.5 15t47 30.5q19 10 28 14.5t20.5 7t16 -3t4.5 -18.5l1 -296v-44q0 -60 57 -43q46 14 86 58q12 14 17 25q9 26 7.5 52.5t-8.5 40.5q-5 11 -1.5 19t14.5 8h46q17 0 28 -14t9 -32q-3 -71 -14.5 -105.5
t-44.5 -61.5q69 -91 76 -179l5 -62q2 -18 -9 -32t-28 -14h-83q-11 0 -14.5 8t1.5 19q24 53 17 111.5t-41 107.5q-60 -28 -122 -51v-45q0 -53 43 -125q6 -10 2.5 -18.5t-15.5 -8.5h-83z" />
    <glyph glyph-name="l" unicode="l" horiz-adv-x="186" 
d="M48 0q-18 0 -23 9.5t2 19.5q21 35 21 84v318v3l1 152q0 17 -10 29.5t-15.5 17.5t5 15.5t48.5 30.5q44 24 53 21t9 -22l1 -200v-5l1 -122v-215q0 -63 21 -107q6 -12 -1 -20.5t-20 -8.5h-93z" />
    <glyph glyph-name="m" unicode="m" horiz-adv-x="693" 
d="M66 0q-17 0 -27 14t-10 32v410q0 18 12 31t29 13h545q21 0 35 -16t14 -38v-392q0 -22 -14 -38t-35 -16h-68q-12 0 -15 10.5t4 20.5q42 61 42 227q0 175 -113 175q-25 0 -40.5 -7.5t-22 -22.5t-8 -25.5t-1.5 -26.5v-297q0 -22 -14 -38t-35 -16h-68q-12 0 -15 10.5t4 20.5
q42 61 42 227q0 175 -113 175q-25 0 -40.5 -7.5t-22 -22.5t-8 -25.5t-1.5 -26.5v-238q0 -39 28 -86q6 -10 2.5 -18.5t-15.5 -8.5h-71z" />
    <glyph glyph-name="n" unicode="n" 
d="M66 0q-17 0 -27 14t-10 32v410q0 18 12 31t29 13h274q21 0 35 -16t14 -38v-392q0 -22 -14 -38t-35 -16h-68q-12 0 -15 10.5t4 20.5q42 61 42 227q0 175 -113 175q-25 0 -40.5 -7.5t-22 -22.5t-8 -25.5t-1.5 -26.5v-238q0 -39 28 -86q6 -10 2.5 -18.5t-15.5 -8.5h-71z" />
    <glyph glyph-name="o" unicode="o" 
d="M82 0q-21 0 -37 15t-16 36v395q0 21 15 37.5t36 16.5h264q21 0 35 -16t14 -38v-395q0 -21 -13 -36t-34 -15h-264zM211 62q90 0 90 188t-90 188t-90 -188t90 -188z" />
    <glyph glyph-name="p" unicode="p" horiz-adv-x="448" 
d="M54 -250q-18 0 -23 9.5t2 19.5q22 37 22 84v583q0 22 14 38t35 16h264q21 0 36 -16.5t15 -37.5v-395q0 -21 -16 -36t-37 -15h-175q-44 -5 -44 -30v-84q0 -63 21 -107q6 -12 -1 -20.5t-20 -8.5h-93zM237 62q90 0 90 188q0 102 -24.5 145t-83.5 43q-27 0 -49.5 -16
t-22.5 -29v-143q0 -188 90 -188z" />
    <glyph glyph-name="q" unicode="q" horiz-adv-x="446" 
d="M82 0q-21 0 -37 15t-16 36v395q0 21 15 37.5t36 16.5h264q21 0 35 -16t14 -38v-560q0 -63 21 -107q6 -12 -1 -20.5t-20 -8.5h-93q-18 0 -23 9.5t2 19.5q21 35 21 84v107q0 25 -44 30h-174zM211 62q90 0 90 188v143q0 13 -22.5 29t-49.5 16q-59 0 -83.5 -43t-24.5 -145
q0 -188 90 -188z" />
    <glyph glyph-name="r" unicode="r" horiz-adv-x="324" 
d="M66 0q-17 0 -27 14t-10 32v410q0 18 12 31t29 13h184q17 0 29 -13t12 -31v-165q0 -16 -7.5 -20t-17.5 -0.5t-26 13.5q-30 18 -37 29.5t0.5 17.5t17.5 19.5t10 31.5q0 20 -12.5 35.5t-37.5 15.5q-33 0 -48 -26t-15 -56v-238q0 -39 28 -86q6 -10 2.5 -18.5t-15.5 -8.5h-71z
M197 21h-1h1z" />
    <glyph glyph-name="s" unicode="s" 
d="M76 0q-21 0 -34 15t-13 36q0 45 1 50q1 7 5.5 9.5t10.5 0.5t12 -8q15 -14 25 -21t33.5 -13t57.5 -6q67 0 97 31t30 81q0 34 -32.5 62t-94.5 28t-87 -10q-1 0 -6 -2.5t-7 -3t-6.5 -1.5t-7 -0.5t-5.5 1.5t-4 5t-1 9l-2 193q0 18 12 31t29 13h245q17 0 29 -13.5t12 -31.5
v-39q0 -26 -32 -4q-53 35 -112 35q-36 0 -63.5 -17t-27.5 -47q0 -11 4 -20.5t13 -15.5t18 -11t24.5 -7.5t27 -4t31 -2t30 -0.5h30.5h28q46 0 46 -35l1 -236q0 -21 -16 -36t-37 -15h-264z" />
    <glyph glyph-name="t" unicode="t" horiz-adv-x="201" 
d="M70 0q-21 0 -35 16t-14 38v377v10l1 109q0 13 -0.5 29t-0.5 21t1 12.5t4.5 11t8.5 8t15 11.5q15 10 25 15.5t19 7t13.5 -4.5t4.5 -19v-112q2 -30 16 -30h7.5h7.5h7.5h7t5.5 -0.5t5 -1.5t3.5 -2t2.5 -2.5t1 -3.5v-36q0 -2 -1 -3.5t-2.5 -2.5t-3.5 -2t-5 -1.5t-6 -0.5h-6.5
h-6.5h-7.5h-6.5q-12 0 -17 -25l1 -68v-215q0 -67 54 -76q13 -2 11.5 -31t-14.5 -29h-95z" />
    <glyph glyph-name="u" unicode="u" 
d="M78 0q-21 0 -35 16t-14 38v392q0 22 14 38t35 16h68q12 0 15 -10.5t-4 -20.5q-42 -61 -42 -227q0 -175 113 -175q25 0 40.5 7.5t22 22.5t8 25.5t1.5 26.5v238q0 39 -28 86q-6 10 -2.5 18.5t15.5 8.5h71q16 0 26.5 -14t10.5 -32v-410q0 -18 -12 -31t-29 -13h-274z" />
    <glyph glyph-name="v" unicode="v" 
d="M273 0q-130 0 -188 83t-58 240v123q0 22 14 38t35 16h72q12 0 15.5 -11t-4.5 -20q-12 -14 -20 -32t-12 -31.5t-6 -38.5t-2.5 -37t0 -44.5t0.5 -43.5q0 -74 41 -114t83 -40q59 0 59 82v217q0 39 -28 86q-6 10 -2.5 18.5t15.5 8.5h71q16 0 26.5 -14t10.5 -32v-410
q0 -18 -12 -31t-29 -13h-81z" />
    <glyph glyph-name="w" unicode="w" horiz-adv-x="683" 
d="M275 0q-130 0 -188 83t-58 240v123q0 22 14 38t35 16h72q12 0 15.5 -11t-4.5 -20q-12 -14 -20 -32t-12 -31.5t-6 -38.5t-2.5 -37t0 -44.5t0.5 -43.5q0 -74 41 -114t83 -40q59 0 59 81q-18 66 -18 154v123q0 22 14 38t35 16h72q12 0 15.5 -11t-4.5 -20q-12 -14 -20 -32
t-12 -31.5t-6 -38.5t-2.5 -37t0 -44.5t0.5 -43.5q0 -74 41 -114t83 -40q59 0 59 82v217q0 39 -28 86q-6 10 -2.5 18.5t15.5 8.5h71q17 0 27 -14t10 -32v-410q0 -18 -12 -31t-29 -13h-338z" />
    <glyph glyph-name="x" unicode="x" 
d="M47 0q-31 0 -19 46q50 196 125 291q-64 72 -117 72h-14v73q0 18 14 18h63q14 0 14 -17v-41q56 -15 98 -48q42 33 98 48v41q0 17 14 17h63q14 0 14 -18v-73h-14q-53 0 -117 -72q75 -95 125 -291q12 -46 -19 -46h-71q-6 0 -9.5 3t-5.5 9t-2.5 11.5t-1 15.5t-1.5 15
q-11 94 -73 202q-62 -108 -73 -202q-1 -5 -1.5 -15t-1 -15.5t-2.5 -11.5t-5.5 -9t-9.5 -3h-71z" />
    <glyph glyph-name="y" unicode="y" 
d="M70 -250q-41 0 -41 34v151q0 16 7.5 20t17.5 0.5t26 -13.5q26 -16 32 -24.5t0 -13t-14.5 -17t-8.5 -30.5q0 -20 16 -30.5t67 -10.5q39 0 58.5 3t38 16t25 41t6.5 76v18q0 25 -44 30h-178q-21 0 -35 16t-14 38v392q0 22 14 38t35 16h68q12 0 15 -10.5t-4 -20.5
q-42 -61 -42 -227q0 -175 113 -175q25 0 40.5 7.5t22 22.5t8 25.5t1.5 26.5v238q0 39 -28 86q-6 10 -2.5 18.5t15.5 8.5h71q16 0 26.5 -14t10.5 -32v-653q0 -21 -16 -36t-37 -15h-270z" />
    <glyph glyph-name="z" unicode="z" horiz-adv-x="420" 
d="M72 0q-16 0 -26.5 14t-8.5 32q0 96 29.5 147t88.5 92q106 75 93 121q-9 32 -66 32q-54 0 -114 -44q-9 -7 -18 -9t-15 0.5t-6 8.5v62q0 18 12 31t29 13h257q15 0 26 -14t9 -32q0 -41 -18.5 -79.5t-37.5 -59.5t-52 -51.5t-42 -40.5q-33 -36 -45 -73.5t2 -62.5t52 -25
q42 0 79 14t52 30q7 8 16.5 10t16 -1t6.5 -9v-62q0 -18 -12 -31t-29 -13h-278z" />
    <glyph glyph-name="braceleft" unicode="{" horiz-adv-x="449" 
d="M41 315q21 -9 37 -35t30.5 -77t22 -85t21.5 -112.5t19 -105.5q3 -13 10.5 -22.5t16 -14t21.5 -6.5t21.5 -2t21 0.5t14.5 0.5h122q17 0 29 13.5t12 31.5v74q0 9 -5.5 13t-13.5 1.5t-13 -10.5q-22 -34 -47 -46.5t-55 4t-56 69.5q-27 54 -38 128t-21 120t-40 60
q31 15 44.5 59.5t24.5 108t30 101.5q73 143 158 27q5 -7 13 -9.5t13.5 1t5.5 12.5v74q0 18 -12 31.5t-29 13.5h-122h-10.5h-14t-14.5 -1t-16.5 -2.5t-15.5 -4.5t-14.5 -8t-11 -12t-8.5 -16q-20 -63 -41 -162.5t-39 -148t-50 -63.5z" />
    <glyph glyph-name="bar" unicode="|" horiz-adv-x="159" 
d="M63 -250q-18 0 -18 14v972q0 14 17 14h41q17 0 17 -14v-972q0 -14 -15 -14h-42z" />
    <glyph glyph-name="braceright" unicode="}" horiz-adv-x="456" 
d="M413 316q-32 15 -50 63.5t-39 148t-41 162.5q-3 9 -8.5 16t-11 12t-14.5 8t-15.5 4.5t-16.5 2.5t-14.5 1h-14h-10.5h-122q-17 0 -29 -13.5t-12 -31.5v-74q0 -14 12 -15t20 11q85 116 158 -27q19 -38 30 -101.5t24.5 -108t44.5 -59.5q-30 -14 -40 -60t-21 -120t-38 -128
q-26 -53 -56 -69.5t-55 -4t-47 46.5q-5 8 -13 10.5t-13.5 -1.5t-5.5 -13v-74q0 -18 12 -31.5t29 -13.5h122q2 0 14.5 -0.5t21 -0.5t21.5 2t21.5 6.5t16 14t10.5 22.5q5 27 19 105.5t21.5 112.5t22 85t30.5 77t37 35z" />
    <glyph glyph-name="dieresis" unicode="&#xa8;" horiz-adv-x="278" 
d="M32 679q0 18 14 18h63q14 0 14 -17v-41q0 -17 -14 -17h-63q-14 0 -14 15v42zM157 679q0 18 14 18h63q14 0 14 -17v-41q0 -17 -14 -17h-63q-14 0 -14 15v42z" />
    <glyph glyph-name="guillemotleft" unicode="&#xab;" horiz-adv-x="486" 
d="M241 16q-31 0 -79 51t-83 109.5t-35 81.5q0 25 35 83t83 108.5t79 50.5h13q18 0 30 -12.5t12 -28.5v-52q0 -11 -3 -13t-9 2.5t-16 9t-21.5 7t-28.5 -5t-34 -26.5q-26 -28 -45 -66t-19 -59q0 -15 20 -55t44 -66q19 -21 36.5 -28t29 -3t21 10t14.5 12t8 2.5t3 -19.5v-52
q0 -16 -12 -28.5t-30 -12.5h-13zM426 42q-41 0 -109 91t-68 127q0 37 68 127.5t109 90.5h12q16 0 27 -11t11 -26v-47q0 -12 -4 -12t-12.5 6t-19.5 10.5t-29 -1.5t-36 -26q-23 -25 -40.5 -59.5t-17.5 -53.5q0 -13 18.5 -49t39.5 -60q17 -19 32.5 -25.5t26 -2.5t19 9.5
t13.5 10.5t7.5 2t2.5 -17v-47q0 -15 -11 -26t-27 -11h-12z" />
    <glyph glyph-name="acute" unicode="&#xb4;" horiz-adv-x="200" 
d="M26 679q0 18 12 18l87 1q24 0 25.5 -7.5t-19.5 -40.5q0 -1 -2.5 -4.5t-3 -4t-3 -4t-3.5 -4t-3.5 -3t-4.5 -3t-5.5 -2t-6.5 -2t-7 -1t-9 -0.5h-45q-12 0 -12 15v42z" />
    <glyph glyph-name="guillemotright" unicode="&#xbb;" horiz-adv-x="485" 
d="M234 16q-18 0 -30 12.5t-12 28.5v52q0 16 3 19.5t8 -2.5t14.5 -12t21 -10t29 3t36.5 28q24 26 44 66t20 55q0 21 -19 59t-45 66q-17 19 -34 26.5t-28.5 5t-21.5 -7t-16 -9t-9 -2.5t-3 13v52q0 16 12 28.5t30 12.5h13q31 0 79 -50.5t83 -108.5t35 -83q0 -23 -35 -81.5
t-83 -109.5t-79 -51h-13zM50 42q-16 0 -27 11t-11 26v47q0 14 2.5 17t7.5 -2t13.5 -10.5t19 -9.5t26 2.5t32.5 25.5q21 24 39.5 60t18.5 49q0 19 -17.5 53.5t-40.5 59.5q-18 20 -36 26t-29 1.5t-19.5 -10.5t-12.5 -6t-4 12v47q0 15 11 26t27 11h12q41 0 109 -90.5t68 -127.5
q0 -36 -68 -127t-109 -91h-12z" />
    <glyph glyph-name="Agrave" unicode="&#xc0;" horiz-adv-x="519" 
d="M363 0q-12 0 -15.5 8.5t2.5 18.5q43 72 43 129v110q0 21 -24 21h-202q-8 0 -13 -5.5t-5.5 -9.5t-2.5 -15q0 -135 45 -230q5 -11 1.5 -19t-14.5 -8h-93q-29 0 -37 46q-22 121 8.5 271.5t64.5 212.5q48 100 -27 100q-11 0 -18.5 -2t-10 -3.5t-8 -8.5t-7.5 -9
q-8 -9 -14.5 -7t-6.5 13v43q0 17 12 30.5t29 13.5h379q17 0 29 -13t12 -31v-610q0 -18 -10 -32t-27 -14h-90zM296 749q-15 0 -25 5t-12.5 8.5t-10.5 14.5q-21 33 -19.5 40.5t25.5 7.5l87 -1q12 0 12 -18v-42q0 -15 -12 -15h-45zM155 370q-2 -18 10 -18h202q26 0 26 19
q0 9 1 36t1 46.5t-1.5 48t-7 49t-14.5 40t-26 29.5t-39 10q-21 0 -37 -7t-30.5 -26.5t-20 -29.5t-20.5 -39q-26 -53 -42 -146v-1z" />
    <glyph glyph-name="Aacute" unicode="&#xc1;" horiz-adv-x="519" 
d="M363 0q-12 0 -15.5 8.5t2.5 18.5q43 72 43 129v110q0 21 -24 21h-202q-8 0 -13 -5.5t-5.5 -9.5t-2.5 -15q0 -135 45 -230q5 -11 1.5 -19t-14.5 -8h-93q-29 0 -37 46q-22 121 8.5 271.5t64.5 212.5q48 100 -27 100q-11 0 -18.5 -2t-10 -3.5t-8 -8.5t-7.5 -9
q-8 -9 -14.5 -7t-6.5 13v43q0 17 12 30.5t29 13.5h379q17 0 29 -13t12 -31v-610q0 -18 -10 -32t-27 -14h-90zM254 751q-12 0 -12 15v42q0 18 12 18l87 1q24 0 25.5 -7.5t-19.5 -40.5q0 -1 -2.5 -4.5t-3 -4t-3 -4t-3.5 -4t-3.5 -3t-4.5 -3t-5.5 -2t-6.5 -2t-7 -1t-9 -0.5h-45
zM155 370q-2 -18 10 -18h202q26 0 26 19q0 9 1 36t1 46.5t-1.5 48t-7 49t-14.5 40t-26 29.5t-39 10q-21 0 -37 -7t-30.5 -26.5t-20 -29.5t-20.5 -39q-26 -53 -42 -146v-1z" />
    <glyph glyph-name="Acircumflex" unicode="&#xc2;" horiz-adv-x="519" 
d="M363 0q-12 0 -15.5 8.5t2.5 18.5q43 72 43 129v110q0 21 -24 21h-202q-8 0 -13 -5.5t-5.5 -9.5t-2.5 -15q0 -135 45 -230q5 -11 1.5 -19t-14.5 -8h-93q-29 0 -37 46q-22 121 8.5 271.5t64.5 212.5q48 100 -27 100q-11 0 -18.5 -2t-10 -3.5t-8 -8.5t-7.5 -9
q-8 -9 -14.5 -7t-6.5 13v43q0 17 12 30.5t29 13.5h379q17 0 29 -13t12 -31v-610q0 -18 -10 -32t-27 -14h-90zM212 749q-23 0 -23.5 7t21.5 40q7 11 10 14.5t12.5 8.5t23.5 5h49h2h2h51h2q6 0 10.5 -1t9 -3t6.5 -3t5.5 -5t4 -4.5t4.5 -5.5l4 -6q22 -33 21.5 -40t-23.5 -7h-49
q-15 0 -25 5t-12.5 8.5t-10.5 14.5q0 -1 -2.5 -4.5t-3 -4t-3 -4t-3.5 -4t-3.5 -3t-4.5 -3t-5.5 -2t-6.5 -2t-7 -1t-9 -0.5h-47zM155 370q-2 -18 10 -18h202q26 0 26 19q0 9 1 36t1 46.5t-1.5 48t-7 49t-14.5 40t-26 29.5t-39 10q-21 0 -37 -7t-30.5 -26.5t-20 -29.5
t-20.5 -39q-26 -53 -42 -146v-1z" />
    <glyph glyph-name="Adieresis" unicode="&#xc4;" horiz-adv-x="519" 
d="M363 0q-12 0 -15.5 8.5t2.5 18.5q43 72 43 129v110q0 21 -24 21h-202q-8 0 -13 -5.5t-5.5 -9.5t-2.5 -15q0 -135 45 -230q5 -11 1.5 -19t-14.5 -8h-93q-29 0 -37 46q-22 121 8.5 271.5t64.5 212.5q48 100 -27 100q-11 0 -18.5 -2t-10 -3.5t-8 -8.5t-7.5 -9
q-8 -9 -14.5 -7t-6.5 13v43q0 17 12 30.5t29 13.5h379q17 0 29 -13t12 -31v-610q0 -18 -10 -32t-27 -14h-90zM219 750q-14 0 -14 15v42q0 18 14 18h63q14 0 14 -17v-41q0 -17 -14 -17h-63zM344 750q-14 0 -14 15v42q0 18 14 18h63q14 0 14 -17v-41q0 -17 -14 -17h-63z
M155 370q-2 -18 10 -18h202q26 0 26 19q0 9 1 36t1 46.5t-1.5 48t-7 49t-14.5 40t-26 29.5t-39 10q-21 0 -37 -7t-30.5 -26.5t-20 -29.5t-20.5 -39q-26 -53 -42 -146v-1z" />
    <glyph glyph-name="AE" unicode="&#xc6;" horiz-adv-x="828" 
d="M363 0q-12 0 -15.5 8.5t2.5 18.5q43 72 43 129v110q0 21 -24 21h-202q-8 0 -13 -5.5t-5.5 -9.5t-2.5 -15q0 -135 45 -230q5 -11 1.5 -19t-14.5 -8h-93q-29 0 -37 46q-22 121 8.5 271.5t64.5 212.5q48 100 -27 100q-11 0 -18.5 -2t-10 -3.5t-8 -8.5t-7.5 -9
q-8 -9 -14.5 -7t-6.5 13v43q0 17 12 30.5t29 13.5h705q13 0 19.5 -3.5t4.5 -13.5t-5.5 -17.5t-13.5 -26.5q-16 -31 -25 -42t-21 -8.5t-24.5 11t-42.5 17t-68 8.5q-87 0 -111 -59q-16 -39 3 -68q10 -14 24 -14h233q21 0 34 -15t13 -36l-1 -43q0 -18 -4 -19.5t-17 6.5
q-18 10 -32.5 16.5t-50.5 14.5t-78 8q-132 0 -132 -176v-4q1 -68 41 -111.5t87 -43.5q24 0 45 2.5t38 8t29.5 10.5t25 12.5t18 11.5t14.5 11q11 10 15 9t4 -17v-92q0 -20 -9.5 -28.5t-31.5 -8.5h-393zM155 370q-2 -18 10 -18h202q26 0 26 19l2 79v13q-2 167 -88 167
q-21 0 -37 -7t-30.5 -26.5t-20 -29.5t-20.5 -39q-26 -53 -42 -146v-1z" />
    <glyph glyph-name="Ccedilla" unicode="&#xc7;" horiz-adv-x="465" 
d="M82 0q-21 0 -37 15t-16 36l1 597q0 21 16 36t37 15h306q21 0 34 -15t13 -36q0 -78 -1 -83q-1 -7 -5.5 -9.5t-10.5 -0.5t-12 8q-67 64 -142 64q-36 0 -63 -20.5t-41.5 -50t-23 -71t-11 -73t-2.5 -65.5q0 -22 2 -49.5t11 -69.5t23 -75t41 -57t63 -24q75 0 142 64q6 6 12 8
t10.5 -0.5t5.5 -9.5q1 -5 1 -83q0 -21 -13 -36t-34 -15h-104q13 -30 5 -76q-4 -23 -19 -23h-46q-13 0 -7 13q26 57 17 86h-152z" />
    <glyph glyph-name="Egrave" unicode="&#xc8;" horiz-adv-x="472" 
d="M66 0q-17 0 -27 13t-10 31v612q0 18 12 31t29 13h349q13 0 19.5 -3.5t4.5 -13.5t-5.5 -17.5t-13.5 -26.5q-16 -31 -25 -42t-21 -8.5t-24.5 11t-42.5 17t-68 8.5q-88 0 -112 -54q-15 -35 5 -60q10 -11 23 -11h233q21 0 34 -15t13 -36l-1 -43q0 -18 -4 -19.5t-17 6.5
q-18 10 -32.5 16.5t-50.5 14.5t-78 8q-70 0 -101 -55.5t-31 -136.5q-1 -69 39.5 -114t88.5 -45q24 0 45 2.5t38 8t29.5 10.5t25 12.5t18 11.5t14.5 11q11 10 15 9t4 -17v-92q0 -20 -9.5 -28.5t-31.5 -8.5h-334zM232 750q-15 0 -25 5t-12.5 8.5t-10.5 14.5q-21 33 -19.5 40.5
t25.5 7.5l87 -1q12 0 12 -18v-42q0 -15 -12 -15h-45z" />
    <glyph glyph-name="Eacute" unicode="&#xc9;" horiz-adv-x="472" 
d="M66 0q-17 0 -27 13t-10 31v612q0 18 12 31t29 13h349q13 0 19.5 -3.5t4.5 -13.5t-5.5 -17.5t-13.5 -26.5q-16 -31 -25 -42t-21 -8.5t-24.5 11t-42.5 17t-68 8.5q-88 0 -112 -54q-15 -35 5 -60q10 -11 23 -11h233q21 0 34 -15t13 -36l-1 -43q0 -18 -4 -19.5t-17 6.5
q-18 10 -32.5 16.5t-50.5 14.5t-78 8q-70 0 -101 -55.5t-31 -136.5q-1 -69 39.5 -114t88.5 -45q24 0 45 2.5t38 8t29.5 10.5t25 12.5t18 11.5t14.5 11q11 10 15 9t4 -17v-92q0 -20 -9.5 -28.5t-31.5 -8.5h-334zM204 750q-12 0 -12 15v42q0 18 12 18l87 1q24 0 25.5 -7.5
t-19.5 -40.5q0 -1 -2.5 -4.5t-3 -4t-3 -4t-3.5 -4t-3.5 -3t-4.5 -3t-5.5 -2t-6.5 -2t-7 -1t-9 -0.5h-45z" />
    <glyph glyph-name="Ecircumflex" unicode="&#xca;" horiz-adv-x="472" 
d="M66 0q-17 0 -27 13t-10 31v612q0 18 12 31t29 13h349q13 0 19.5 -3.5t4.5 -13.5t-5.5 -17.5t-13.5 -26.5q-16 -31 -25 -42t-21 -8.5t-24.5 11t-42.5 17t-68 8.5q-88 0 -112 -54q-15 -35 5 -60q10 -11 23 -11h233q21 0 34 -15t13 -36l-1 -43q0 -18 -4 -19.5t-17 6.5
q-18 10 -32.5 16.5t-50.5 14.5t-78 8q-70 0 -101 -55.5t-31 -136.5q-1 -69 39.5 -114t88.5 -45q24 0 45 2.5t38 8t29.5 10.5t25 12.5t18 11.5t14.5 11q11 10 15 9t4 -17v-92q0 -20 -9.5 -28.5t-31.5 -8.5h-334zM148 749q-23 0 -23.5 7t21.5 40q7 11 10 14.5t12.5 8.5t23.5 5
h49h2h2h51h2q6 0 10.5 -1t9 -3t6.5 -3t5.5 -5t4 -4.5t4.5 -5.5l4 -6q22 -33 21.5 -40t-23.5 -7h-49q-15 0 -25 5t-12.5 8.5t-10.5 14.5q0 -1 -2.5 -4.5t-3 -4t-3 -4t-3.5 -4t-3.5 -3t-4.5 -3t-5.5 -2t-6.5 -2t-7 -1t-9 -0.5h-47z" />
    <glyph glyph-name="Edieresis" unicode="&#xcb;" horiz-adv-x="472" 
d="M66 0q-17 0 -27 13t-10 31v612q0 18 12 31t29 13h349q13 0 19.5 -3.5t4.5 -13.5t-5.5 -17.5t-13.5 -26.5q-16 -31 -25 -42t-21 -8.5t-24.5 11t-42.5 17t-68 8.5q-88 0 -112 -54q-15 -35 5 -60q10 -11 23 -11h233q21 0 34 -15t13 -36l-1 -43q0 -18 -4 -19.5t-17 6.5
q-18 10 -32.5 16.5t-50.5 14.5t-78 8q-70 0 -101 -55.5t-31 -136.5q-1 -69 39.5 -114t88.5 -45q24 0 45 2.5t38 8t29.5 10.5t25 12.5t18 11.5t14.5 11q11 10 15 9t4 -17v-92q0 -20 -9.5 -28.5t-31.5 -8.5h-334zM142 749q-14 0 -14 15v42q0 18 14 18h63q14 0 14 -17v-41
q0 -17 -14 -17h-63zM267 749q-14 0 -14 15v42q0 18 14 18h63q14 0 14 -17v-41q0 -17 -14 -17h-63z" />
    <glyph glyph-name="Igrave" unicode="&#xcc;" horiz-adv-x="197" 
d="M56 0q-18 0 -23 9.5t2 19.5q1 1 4 6t4 7.5t4 8t4 10.5t2.5 13t2 18t0.5 22v471q0 51 -21 86q-7 10 -2 19.5t23 9.5h95q13 0 20 -8.5t1 -20.5q-21 -44 -21 -109v-448q0 -20 2.5 -35.5t5 -22t7.5 -15.5t6 -12q13 -29 -21 -29h-95zM89 750q-15 0 -25 5t-12.5 8.5t-10.5 14.5
q-21 33 -19.5 40.5t25.5 7.5l87 -1q12 0 12 -18v-42q0 -15 -12 -15h-45z" />
    <glyph glyph-name="Iacute" unicode="&#xcd;" horiz-adv-x="190" 
d="M46 0q-18 0 -23 9.5t2 19.5q1 1 4 6t4 7.5t4 8t4 10.5t2.5 13t2 18t0.5 22v471q0 51 -21 86q-7 10 -2 19.5t23 9.5h95q13 0 20 -8.5t1 -20.5q-21 -44 -21 -109v-448q0 -20 2.5 -35.5t5 -22t7.5 -15.5t6 -12q13 -29 -21 -29h-95zM56 751q-12 0 -12 15v42q0 18 12 18l87 1
q24 0 25.5 -7.5t-19.5 -40.5q0 -1 -2.5 -4.5t-3 -4t-3 -4t-3.5 -4t-3.5 -3t-4.5 -3t-5.5 -2t-6.5 -2t-7 -1t-9 -0.5h-45z" />
    <glyph glyph-name="Icircumflex" unicode="&#xce;" horiz-adv-x="224" 
d="M66 0q-18 0 -23 9.5t2 19.5q1 1 4 6t4 7.5t4 8t4 10.5t2.5 13t2 18t0.5 22v471q0 51 -21 86q-7 10 -2 19.5t23 9.5h95q13 0 20 -8.5t1 -20.5q-21 -44 -21 -109v-448q0 -20 2.5 -35.5t5 -22t7.5 -15.5t6 -12q13 -29 -21 -29h-95zM25 750q-23 0 -23.5 7t21.5 40
q7 11 10 14.5t12.5 8.5t23.5 5h49h2h2h51h2q6 0 10.5 -1t9 -3t6.5 -3t5.5 -5t4 -4.5t4.5 -6.5l4 -5q22 -33 21.5 -40t-23.5 -7h-49q-15 0 -25 5t-12.5 8.5t-10.5 14.5q0 -1 -2.5 -4.5t-3 -4t-3 -4t-3.5 -4t-3.5 -3t-4.5 -3t-5.5 -2t-6.5 -2t-7 -1t-9 -0.5h-47z" />
    <glyph glyph-name="Idieresis" unicode="&#xcf;" horiz-adv-x="176" 
d="M42 0q-18 0 -23 9.5t2 19.5q1 1 4 6t4 7.5t4 8t4 10.5t2.5 13t2 18t0.5 22v471q0 51 -21 86q-7 10 -2 19.5t23 9.5h95q13 0 20 -8.5t1 -20.5q-21 -44 -21 -109v-448q0 -20 2.5 -35.5t5 -22t7.5 -15.5t6 -12q13 -29 -21 -29h-95zM-6 750q-14 0 -14 15v42q0 18 14 18h63
q14 0 14 -17v-41q0 -17 -14 -17h-63zM119 750q-14 0 -14 15v42q0 18 14 18h63q14 0 14 -17v-41q0 -17 -14 -17h-63z" />
    <glyph glyph-name="Ograve" unicode="&#xd2;" horiz-adv-x="490" 
d="M82 1q-21 0 -37 15t-16 36v594q0 21 15 38t36 17h332q20 0 34.5 -16.5t14.5 -38.5v-594q0 -21 -13 -36t-34 -15h-332zM245 63q34 0 58.5 24t37.5 66t19 89t6 102q0 76 -9.5 138t-38 109t-73.5 47t-73.5 -47t-38 -109t-9.5 -138q0 -55 6 -102t19 -89t37.5 -66t58.5 -24z
M243 750q-15 0 -25 5t-12.5 8.5t-10.5 14.5q-21 33 -19.5 40.5t25.5 7.5l87 -1q12 0 12 -18v-42q0 -15 -12 -15h-45z" />
    <glyph glyph-name="Oacute" unicode="&#xd3;" horiz-adv-x="490" 
d="M82 1q-21 0 -37 15t-16 36v594q0 21 15 38t36 17h332q20 0 34.5 -16.5t14.5 -38.5v-594q0 -21 -13 -36t-34 -15h-332zM245 63q34 0 58.5 24t37.5 66t19 89t6 102q0 76 -9.5 138t-38 109t-73.5 47t-73.5 -47t-38 -109t-9.5 -138q0 -55 6 -102t19 -89t37.5 -66t58.5 -24z
M215 750q-12 0 -12 15v42q0 18 12 18l87 1q24 0 25.5 -7.5t-19.5 -40.5q0 -1 -2.5 -4.5t-3 -4t-3 -4t-3.5 -4t-3.5 -3t-4.5 -3t-5.5 -2t-6.5 -2t-7 -1t-9 -0.5h-45z" />
    <glyph glyph-name="Ocircumflex" unicode="&#xd4;" horiz-adv-x="490" 
d="M82 1q-21 0 -37 15t-16 36v594q0 21 15 38t36 17h332q20 0 34.5 -16.5t14.5 -38.5v-594q0 -21 -13 -36t-34 -15h-332zM245 63q34 0 58.5 24t37.5 66t19 89t6 102q0 76 -9.5 138t-38 109t-73.5 47t-73.5 -47t-38 -109t-9.5 -138q0 -55 6 -102t19 -89t37.5 -66t58.5 -24z
M138 750q-23 0 -23.5 7t21.5 40q7 11 10 14.5t12.5 8.5t23.5 5h49h2h2h51h2q6 0 10.5 -1t9 -3t6.5 -3t5.5 -5t4 -4.5t4.5 -6.5l4 -5q22 -33 21.5 -40t-23.5 -7h-49q-15 0 -25 5t-12.5 8.5t-10.5 14.5q0 -1 -2.5 -4.5t-3 -4t-3 -4t-3.5 -4t-3.5 -3t-4.5 -3t-5.5 -2t-6.5 -2
t-7 -1t-9 -0.5h-47z" />
    <glyph glyph-name="Odieresis" unicode="&#xd6;" horiz-adv-x="490" 
d="M82 1q-21 0 -37 15t-16 36v594q0 21 15 38t36 17h332q20 0 34.5 -16.5t14.5 -38.5v-594q0 -21 -13 -36t-34 -15h-332zM245 63q34 0 58.5 24t37.5 66t19 89t6 102q0 76 -9.5 138t-38 109t-73.5 47t-73.5 -47t-38 -109t-9.5 -138q0 -55 6 -102t19 -89t37.5 -66t58.5 -24z
M158 749q-14 0 -14 15v42q0 18 14 18h63q14 0 14 -17v-41q0 -17 -14 -17h-63zM283 749q-14 0 -14 15v42q0 18 14 18h63q14 0 14 -17v-41q0 -17 -14 -17h-63z" />
    <glyph glyph-name="multiply" unicode="&#xd7;" horiz-adv-x="572" 
d="M108 456q-8 8 6 21l28 31q10 10 22 -1l85 -84l84 83q9 8 19 -2l28 -27q17 -17 6 -26l-83 -82l79 -78q10 -9 -2 -21l-29 -29q-13 -13 -23 -3l-79 78l-85 -83q-10 -9 -21 2l-27 27q-15 15 -4 26l83 82z" />
    <glyph glyph-name="Ugrave" unicode="&#xd9;" horiz-adv-x="517" 
d="M98 0q-29 0 -49 22.5t-20 53.5l8 197q6 180 46 350q3 13 -0.5 27t-7.5 22t-3 15t14.5 10t43.5 3h56q17 0 21 -14.5t-6 -28.5q-71 -108 -71 -318q0 -35 3.5 -68.5t14 -73t27.5 -68t47.5 -48t70.5 -19.5q100 0 100 147v333q0 28 -7.5 54t-12.5 34.5t-19 31.5q-23 38 6 38
h76q23 0 37.5 -19.5t14.5 -44.5v-574q0 -25 -17 -43.5t-41 -18.5h-332zM250 749q-15 0 -25 5t-12.5 8.5t-10.5 14.5q-21 33 -19.5 40.5t25.5 7.5l87 -1q12 0 12 -18v-42q0 -15 -12 -15h-45z" />
    <glyph glyph-name="Uacute" unicode="&#xda;" horiz-adv-x="517" 
d="M98 0q-29 0 -49 22.5t-20 53.5l8 197q6 180 46 350q3 13 -0.5 27t-7.5 22t-3 15t14.5 10t43.5 3h56q17 0 21 -14.5t-6 -28.5q-71 -108 -71 -318q0 -35 3.5 -68.5t14 -73t27.5 -68t47.5 -48t70.5 -19.5q100 0 100 147v333q0 28 -7.5 54t-12.5 34.5t-19 31.5q-23 38 6 38
h76q23 0 37.5 -19.5t14.5 -44.5v-574q0 -25 -17 -43.5t-41 -18.5h-332zM233 749q-12 0 -12 15v42q0 18 12 18l87 1q24 0 25.5 -7.5t-19.5 -40.5q0 -1 -2.5 -4.5t-3 -4t-3 -4t-3.5 -4t-3.5 -3t-4.5 -3t-5.5 -2t-6.5 -2t-7 -1t-9 -0.5h-45z" />
    <glyph glyph-name="Ucircumflex" unicode="&#xdb;" horiz-adv-x="517" 
d="M98 0q-29 0 -49 22.5t-20 53.5l8 197q6 180 46 350q3 13 -0.5 27t-7.5 22t-3 15t14.5 10t43.5 3h56q17 0 21 -14.5t-6 -28.5q-71 -108 -71 -318q0 -35 3.5 -68.5t14 -73t27.5 -68t47.5 -48t70.5 -19.5q100 0 100 147v333q0 28 -7.5 54t-12.5 34.5t-19 31.5q-23 38 6 38
h76q23 0 37.5 -19.5t14.5 -44.5v-574q0 -25 -17 -43.5t-41 -18.5h-332zM184 747q-23 0 -23.5 7t21.5 40q7 11 10 14.5t12.5 8.5t23.5 5h49h2h2h51h2q6 0 10.5 -1t9 -3t6.5 -3t5.5 -5t4 -4.5t4.5 -5.5l4 -6q22 -33 21.5 -40t-23.5 -7h-49q-15 0 -25 5t-12.5 8.5t-10.5 14.5
q0 -1 -2.5 -4.5t-3 -4t-3 -4t-3.5 -4t-3.5 -3t-4.5 -3t-5.5 -2t-6.5 -2t-7 -1t-9 -0.5h-47z" />
    <glyph glyph-name="Udieresis" unicode="&#xdc;" horiz-adv-x="517" 
d="M98 0q-29 0 -49 22.5t-20 53.5l8 197q6 180 46 350q3 13 -0.5 27t-7.5 22t-3 15t14.5 10t43.5 3h56q17 0 21 -14.5t-6 -28.5q-71 -108 -71 -318q0 -35 3.5 -68.5t14 -73t27.5 -68t47.5 -48t70.5 -19.5q100 0 100 147v333q0 28 -7.5 54t-12.5 34.5t-19 31.5q-23 38 6 38
h76q23 0 37.5 -19.5t14.5 -44.5v-574q0 -25 -17 -43.5t-41 -18.5h-332zM175 750q-14 0 -14 15v42q0 18 14 18h63q14 0 14 -17v-41q0 -17 -14 -17h-63zM300 750q-14 0 -14 15v42q0 18 14 18h63q14 0 14 -17v-41q0 -17 -14 -17h-63z" />
    <glyph glyph-name="agrave" unicode="&#xe0;" 
d="M78 0q-21 0 -35 16t-14 38v153q0 28 32.5 55t79 45t88.5 30t69 15q0 77 -124 77q-50 0 -82 -35q-7 -8 -16 -10t-15.5 1t-6.5 9v62q0 18 12 31t29 13h249q21 0 35 -16t14 -38v-402q0 -18 -12 -31t-29 -13h-274zM201 60q39 0 68 29.5t29 77.5v22.5v24v21t-1.5 20t-4 15
t-6.5 11t-9 3.5q-40 0 -94 -46t-54 -97q0 -38 20.5 -59.5t51.5 -21.5zM212 622q-15 0 -25 5t-12.5 8.5t-10.5 14.5q-21 33 -19.5 40.5t25.5 7.5l87 -1q12 0 12 -18v-42q0 -15 -12 -15h-45z" />
    <glyph glyph-name="aacute" unicode="&#xe1;" 
d="M78 0q-21 0 -35 16t-14 38v153q0 28 32.5 55t79 45t88.5 30t69 15q0 77 -124 77q-50 0 -82 -35q-7 -8 -16 -10t-15.5 1t-6.5 9v62q0 18 12 31t29 13h249q21 0 35 -16t14 -38v-402q0 -18 -12 -31t-29 -13h-274zM201 60q39 0 68 29.5t29 77.5v22.5v24v21t-1.5 20t-4 15
t-6.5 11t-9 3.5q-40 0 -94 -46t-54 -97q0 -38 20.5 -59.5t51.5 -21.5zM200 622q-12 0 -12 15v42q0 18 12 18l87 1q24 0 25.5 -7.5t-19.5 -40.5q0 -1 -2.5 -4.5t-3 -4t-3 -4t-3.5 -4t-3.5 -3t-4.5 -3t-5.5 -2t-6.5 -2t-7 -1t-9 -0.5h-45z" />
    <glyph glyph-name="acircumflex" unicode="&#xe2;" 
d="M78 0q-21 0 -35 16t-14 38v153q0 28 32.5 55t79 45t88.5 30t69 15q0 77 -124 77q-50 0 -82 -35q-7 -8 -16 -10t-15.5 1t-6.5 9v62q0 18 12 31t29 13h249q21 0 35 -16t14 -38v-402q0 -18 -12 -31t-29 -13h-274zM201 60q39 0 68 29.5t29 77.5v22.5v24v21t-1.5 20t-4 15
t-6.5 11t-9 3.5q-40 0 -94 -46t-54 -97q0 -38 20.5 -59.5t51.5 -21.5zM122 622q-23 0 -23.5 7t21.5 40q7 11 10 14.5t12.5 8.5t23.5 5h49h2h2h51h2q6 0 10.5 -1t9 -3t6.5 -3t5.5 -5t4 -4.5t4.5 -6.5l4 -5q22 -33 21.5 -40t-23.5 -7h-49q-15 0 -25 5t-12.5 8.5t-10.5 14.5
q0 -1 -2.5 -4.5t-3 -4t-3 -4t-3.5 -4t-3.5 -3t-4.5 -3t-5.5 -2t-6.5 -2t-7 -1t-9 -0.5h-47z" />
    <glyph glyph-name="adieresis" unicode="&#xe4;" 
d="M78 0q-21 0 -35 16t-14 38v153q0 28 32.5 55t79 45t88.5 30t69 15q0 77 -124 77q-50 0 -82 -35q-7 -8 -16 -10t-15.5 1t-6.5 9v62q0 18 12 31t29 13h249q21 0 35 -16t14 -38v-402q0 -18 -12 -31t-29 -13h-274zM201 60q39 0 68 29.5t29 77.5v22.5v24v21t-1.5 20t-4 15
t-6.5 11t-9 3.5q-40 0 -94 -46t-54 -97q0 -38 20.5 -59.5t51.5 -21.5zM130 622q-14 0 -14 15v42q0 18 14 18h63q14 0 14 -17v-41q0 -17 -14 -17h-63zM255 622q-14 0 -14 15v42q0 18 14 18h63q14 0 14 -17v-41q0 -17 -14 -17h-63z" />
    <glyph glyph-name="ae" unicode="&#xe6;" horiz-adv-x="688" 
d="M352 0h-2h-1h-274q-21 0 -35 16t-14 38v153q0 28 32.5 55t79 45t88.5 30t69 15q0 77 -124 77q-49 0 -82 -35q-7 -8 -16 -10t-15.5 1t-6.5 9v62q0 18 12 31t29 13h249h4h5h264q21 0 35 -16t14 -38v-140q0 -34 -20 -42q-8 -3 -18 -5t-28 -2.5t-30.5 -0.5h-41.5h-44h-13
h-26.5t-20.5 -2.5t-17 -7t-9 -13.5t-4 -23q0 -147 127 -147q34 0 57.5 6t33.5 13t25 21q6 6 12 8t10.5 -0.5t5.5 -9.5q1 -5 1 -26v-24q0 -21 -13 -36t-34 -15h-264zM198 60q39 0 68 29.5t29 77.5v22.5v24v21t-1.5 20t-4 15t-6.5 11t-9 3.5q-40 0 -94 -46t-54 -97
q0 -38 20.5 -59.5t51.5 -21.5zM481 313h19.5h17h13.5t12 1t9 2.5t7.5 4t5 5.5t4 7.5t1.5 10.5t1 14q0 27 -25.5 53.5t-64.5 26.5t-65 -27.5t-26 -53.5q0 -9 0.5 -15t3 -11t4.5 -8t7.5 -5t8.5 -3t12.5 -1.5t14.5 -0.5h18.5h21.5z" />
    <glyph glyph-name="ccedilla" unicode="&#xe7;" 
d="M82 0q-21 0 -37 15t-16 36l1 406q0 20 15 31.5t37 11.5h263q21 0 34 -15t13 -36q0 -38 -1 -43q-1 -7 -5.5 -9.5t-10.5 -0.5t-12 8q-19 18 -42 25.5t-74 7.5q-35 0 -59.5 -11t-37.5 -26.5t-20 -43t-8.5 -49.5t-1.5 -56q0 -188 128 -188q34 0 57.5 6t33.5 13t25 21
q6 6 12 8t10.5 -0.5t5.5 -9.5q1 -5 1 -50q0 -21 -13 -36t-34 -15h-94q13 -30 5 -76q-4 -23 -19 -23h-46q-13 0 -7 13q26 57 17 86h-120z" />
    <glyph glyph-name="egrave" unicode="&#xe8;" 
d="M82 0q-21 0 -37 15t-16 36v395q0 21 15 37.5t36 16.5h264q21 0 35 -16t14 -38v-140q0 -34 -20 -42q-8 -3 -18 -5t-28 -2.5t-30.5 -0.5h-41.5h-44h-13h-26.5t-20.5 -2.5t-17 -7t-9 -13.5t-4 -23q0 -147 127 -147q34 0 57.5 6t33.5 13t25 21q6 6 12 8t10.5 -0.5t5.5 -9.5
q1 -5 1 -26v-24q0 -21 -13 -36t-34 -15h-264zM211 313h19.5h17h13.5t12 1t9 2.5t7.5 4t5 5.5t4 7.5t1.5 10.5t1 14q0 27 -25.5 53.5t-64.5 26.5t-65 -27.5t-26 -53.5q0 -9 0.5 -15t3 -11t4.5 -8t7.5 -5t8.5 -3t12.5 -1.5t14.5 -0.5h18.5h21.5zM209 621q-15 0 -25 5
t-12.5 8.5t-10.5 14.5q-21 33 -19.5 40.5t25.5 7.5l87 -1q12 0 12 -18v-42q0 -15 -12 -15h-45z" />
    <glyph glyph-name="eacute" unicode="&#xe9;" 
d="M82 0q-21 0 -37 15t-16 36v395q0 21 15 37.5t36 16.5h264q21 0 35 -16t14 -38v-140q0 -34 -20 -42q-8 -3 -18 -5t-28 -2.5t-30.5 -0.5h-41.5h-44h-13h-26.5t-20.5 -2.5t-17 -7t-9 -13.5t-4 -23q0 -147 127 -147q34 0 57.5 6t33.5 13t25 21q6 6 12 8t10.5 -0.5t5.5 -9.5
q1 -5 1 -26v-24q0 -21 -13 -36t-34 -15h-264zM211 313h19.5h17h13.5t12 1t9 2.5t7.5 4t5 5.5t4 7.5t1.5 10.5t1 14q0 27 -25.5 53.5t-64.5 26.5t-65 -27.5t-26 -53.5q0 -9 0.5 -15t3 -11t4.5 -8t7.5 -5t8.5 -3t12.5 -1.5t14.5 -0.5h18.5h21.5zM166 622q-12 0 -12 15v42
q0 18 12 18l87 1q24 0 25.5 -7.5t-19.5 -40.5q0 -1 -2.5 -4.5t-3 -4t-3 -4t-3.5 -4t-3.5 -3t-4.5 -3t-5.5 -2t-6.5 -2t-7 -1t-9 -0.5h-45z" />
    <glyph glyph-name="ecircumflex" unicode="&#xea;" 
d="M82 0q-21 0 -37 15t-16 36v395q0 21 15 37.5t36 16.5h264q21 0 35 -16t14 -38v-140q0 -34 -20 -42q-8 -3 -18 -5t-28 -2.5t-30.5 -0.5h-41.5h-44h-13h-26.5t-20.5 -2.5t-17 -7t-9 -13.5t-4 -23q0 -147 127 -147q34 0 57.5 6t33.5 13t25 21q6 6 12 8t10.5 -0.5t5.5 -9.5
q1 -5 1 -26v-24q0 -21 -13 -36t-34 -15h-264zM211 313h19.5h17h13.5t12 1t9 2.5t7.5 4t5 5.5t4 7.5t1.5 10.5t1 14q0 27 -25.5 53.5t-64.5 26.5t-65 -27.5t-26 -53.5q0 -9 0.5 -15t3 -11t4.5 -8t7.5 -5t8.5 -3t12.5 -1.5t14.5 -0.5h18.5h21.5zM126 621q-23 0 -23.5 7
t21.5 40q7 11 10 14.5t12.5 8.5t23.5 5h49h2h2h51h2q6 0 10.5 -1t9 -3t6.5 -3t5.5 -5t4 -4.5t4.5 -5.5l4 -6q22 -33 21.5 -40t-23.5 -7h-49q-15 0 -25 5t-12.5 8.5t-10.5 14.5q0 -1 -2.5 -4.5t-3 -4t-3 -4t-3.5 -4t-3.5 -3t-4.5 -3t-5.5 -2t-6.5 -2t-7 -1t-9 -0.5h-47z" />
    <glyph glyph-name="edieresis" unicode="&#xeb;" 
d="M82 0q-21 0 -37 15t-16 36v395q0 21 15 37.5t36 16.5h264q21 0 35 -16t14 -38v-140q0 -34 -20 -42q-8 -3 -18 -5t-28 -2.5t-30.5 -0.5h-41.5h-44h-13h-26.5t-20.5 -2.5t-17 -7t-9 -13.5t-4 -23q0 -147 127 -147q34 0 57.5 6t33.5 13t25 21q6 6 12 8t10.5 -0.5t5.5 -9.5
q1 -5 1 -26v-24q0 -21 -13 -36t-34 -15h-264zM211 313h19.5h17h13.5t12 1t9 2.5t7.5 4t5 5.5t4 7.5t1.5 10.5t1 14q0 27 -25.5 53.5t-64.5 26.5t-65 -27.5t-26 -53.5q0 -9 0.5 -15t3 -11t4.5 -8t7.5 -5t8.5 -3t12.5 -1.5t14.5 -0.5h18.5h21.5zM115 621q-14 0 -14 15v42
q0 18 14 18h63q14 0 14 -17v-41q0 -17 -14 -17h-63zM240 621q-14 0 -14 15v42q0 18 14 18h63q14 0 14 -17v-41q0 -17 -14 -17h-63z" />
    <glyph glyph-name="igrave" unicode="&#xec;" horiz-adv-x="196" 
d="M58 0q-18 0 -23 9.5t2 19.5q21 35 21 84v318q0 17 -8.5 33.5t-9.5 20.5q-1 7 3.5 10.5t8.5 4.5h5h75q18 0 18 -27l1 -122v-215q0 -63 21 -107q6 -12 -1 -20.5t-20 -8.5h-93zM89 621q-15 0 -25 5t-12.5 8.5t-10.5 14.5q-21 33 -19.5 40.5t25.5 7.5l87 -1q12 0 12 -18v-42
q0 -15 -12 -15h-45z" />
    <glyph glyph-name="iacute" unicode="&#xed;" horiz-adv-x="184" 
d="M46 0q-18 0 -23 9.5t2 19.5q21 35 21 84v318q0 17 -8.5 33.5t-9.5 20.5q-1 7 3.5 10.5t8.5 4.5h5h75q18 0 18 -27l1 -122v-215q0 -63 21 -107q6 -12 -1 -20.5t-20 -8.5h-93zM48 622q-12 0 -12 15v42q0 18 12 18l87 1q24 0 25.5 -7.5t-19.5 -40.5q0 -1 -2.5 -4.5t-3 -4
t-3 -4t-3.5 -4t-3.5 -3t-4.5 -3t-5.5 -2t-6.5 -2t-7 -1t-9 -0.5h-45z" />
    <glyph glyph-name="icircumflex" unicode="&#xee;" horiz-adv-x="197" 
d="M55 0q-18 0 -23 9.5t2 19.5q21 35 21 84v318q0 17 -8.5 33.5t-9.5 20.5q-1 7 3.5 10.5t9.5 4.5h4h75q18 0 18 -27l1 -122v-215q0 -63 21 -107q6 -12 -1 -20.5t-20 -8.5h-93zM-2 622q-23 0 -23.5 7t21.5 40q7 11 10 14.5t12.5 8.5t23.5 5h49h2h2h51h2q6 0 10.5 -1t9 -3
t6.5 -3t5.5 -5t4 -4.5t4.5 -6.5l4 -5q22 -33 21.5 -40t-23.5 -7h-49q-15 0 -25 5t-12.5 8.5t-10.5 14.5q0 -1 -2.5 -4.5t-3 -4t-3 -4t-3.5 -4t-3.5 -3t-4.5 -3t-5.5 -2t-6.5 -2t-7 -1t-9 -0.5h-47z" />
    <glyph glyph-name="idieresis" unicode="&#xef;" horiz-adv-x="180" 
d="M46 0q-18 0 -23 9.5t2 19.5q21 35 21 84v318q0 17 -8.5 33.5t-9.5 20.5q-1 7 3.5 10.5t8.5 4.5h5h75q18 0 18 -27l1 -122v-215q0 -63 21 -107q6 -12 -1 -20.5t-20 -8.5h-93zM-4 621q-14 0 -14 15v42q0 18 14 18h63q14 0 14 -17v-41q0 -17 -14 -17h-63zM121 621
q-14 0 -14 15v42q0 18 14 18h63q14 0 14 -17v-41q0 -17 -14 -17h-63z" />
    <glyph glyph-name="ograve" unicode="&#xf2;" 
d="M82 0q-21 0 -37 15t-16 36v395q0 21 15 37.5t36 16.5h264q21 0 35 -16t14 -38v-395q0 -21 -13 -36t-34 -15h-264zM211 62q90 0 90 188t-90 188t-90 -188t90 -188zM204 621q-15 0 -25 5t-12.5 8.5t-10.5 14.5q-21 33 -19.5 40.5t25.5 7.5l87 -1q12 0 12 -18v-42
q0 -15 -12 -15h-45z" />
    <glyph glyph-name="oacute" unicode="&#xf3;" 
d="M82 0q-21 0 -37 15t-16 36v395q0 21 15 37.5t36 16.5h264q21 0 35 -16t14 -38v-395q0 -21 -13 -36t-34 -15h-264zM211 62q90 0 90 188t-90 188t-90 -188t90 -188zM160 622q-12 0 -12 15v42q0 18 12 18l87 1q24 0 25.5 -7.5t-19.5 -40.5q0 -1 -2.5 -4.5t-3 -4t-3 -4
t-3.5 -4t-3.5 -3t-4.5 -3t-5.5 -2t-6.5 -2t-7 -1t-9 -0.5h-45z" />
    <glyph glyph-name="ocircumflex" unicode="&#xf4;" 
d="M82 0q-21 0 -37 15t-16 36v395q0 21 15 37.5t36 16.5h264q21 0 35 -16t14 -38v-395q0 -21 -13 -36t-34 -15h-264zM211 62q90 0 90 188t-90 188t-90 -188t90 -188zM107 622q-23 0 -23.5 7t21.5 40q7 11 10 14.5t12.5 8.5t23.5 5h49h2h2h51h2q6 0 10.5 -1t9 -3t6.5 -3
t5.5 -5t4 -4.5t4.5 -6.5l4 -5q22 -33 21.5 -40t-23.5 -7h-49q-15 0 -25 5t-12.5 8.5t-10.5 14.5q0 -1 -2.5 -4.5t-3 -4t-3 -4t-3.5 -4t-3.5 -3t-4.5 -3t-5.5 -2t-6.5 -2t-7 -1t-9 -0.5h-47z" />
    <glyph glyph-name="odieresis" unicode="&#xf6;" 
d="M82 0q-21 0 -37 15t-16 36v395q0 21 15 37.5t36 16.5h264q21 0 35 -16t14 -38v-395q0 -21 -13 -36t-34 -15h-264zM211 62q90 0 90 188t-90 188t-90 -188t90 -188zM118 622q-14 0 -14 15v42q0 18 14 18h63q14 0 14 -17v-41q0 -17 -14 -17h-63zM243 622q-14 0 -14 15v42
q0 18 14 18h63q14 0 14 -17v-41q0 -17 -14 -17h-63z" />
    <glyph glyph-name="divide" unicode="&#xf7;" horiz-adv-x="380" 
d="M21 294q0 18 14 18h310q14 0 14 -17v-61q0 -17 -14 -17h-310q-14 0 -14 15v62zM137 57q0 18 14 18h63q14 0 14 -17v-41q0 -17 -14 -17h-63q-14 0 -14 15v42zM137 482q0 18 14 18h63q14 0 14 -17v-41q0 -17 -14 -17h-63q-14 0 -14 15v42z" />
    <glyph glyph-name="ugrave" unicode="&#xf9;" 
d="M78 0q-21 0 -35 16t-14 38v392q0 22 14 38t35 16h68q12 0 15 -10.5t-4 -20.5q-42 -61 -42 -227q0 -175 113 -175q25 0 40.5 7.5t22 22.5t8 25.5t1.5 26.5v238q0 39 -28 86q-6 10 -2.5 18.5t15.5 8.5h71q16 0 26.5 -14t10.5 -32v-410q0 -18 -12 -31t-29 -13h-274zM210 622
q-15 0 -25 5t-12.5 8.5t-10.5 14.5q-21 33 -19.5 40.5t25.5 7.5l87 -1q12 0 12 -18v-42q0 -15 -12 -15h-45z" />
    <glyph glyph-name="uacute" unicode="&#xfa;" 
d="M78 0q-21 0 -35 16t-14 38v392q0 22 14 38t35 16h68q12 0 15 -10.5t-4 -20.5q-42 -61 -42 -227q0 -175 113 -175q25 0 40.5 7.5t22 22.5t8 25.5t1.5 26.5v238q0 39 -28 86q-6 10 -2.5 18.5t15.5 8.5h71q16 0 26.5 -14t10.5 -32v-410q0 -18 -12 -31t-29 -13h-274zM180 622
q-12 0 -12 15v42q0 18 12 18l87 1q24 0 25.5 -7.5t-19.5 -40.5q0 -1 -2.5 -4.5t-3 -4t-3 -4t-3.5 -4t-3.5 -3t-4.5 -3t-5.5 -2t-6.5 -2t-7 -1t-9 -0.5h-45z" />
    <glyph glyph-name="ucircumflex" unicode="&#xfb;" 
d="M78 0q-21 0 -35 16t-14 38v392q0 22 14 38t35 16h68q12 0 15 -10.5t-4 -20.5q-42 -61 -42 -227q0 -175 113 -175q25 0 40.5 7.5t22 22.5t8 25.5t1.5 26.5v238q0 39 -28 86q-6 10 -2.5 18.5t15.5 8.5h71q16 0 26.5 -14t10.5 -32v-410q0 -18 -12 -31t-29 -13h-274zM115 622
q-23 0 -23.5 7t21.5 40q7 11 10 14.5t12.5 8.5t23.5 5h49h2h2h51h2q6 0 10.5 -1t9 -3t6.5 -3t5.5 -5t4 -4.5t4.5 -6.5l4 -5q22 -33 21.5 -40t-23.5 -7h-49q-15 0 -25 5t-12.5 8.5t-10.5 14.5q0 -1 -2.5 -4.5t-3 -4t-3 -4t-3.5 -4t-3.5 -3t-4.5 -3t-5.5 -2t-6.5 -2t-7 -1
t-9 -0.5h-47z" />
    <glyph glyph-name="udieresis" unicode="&#xfc;" 
d="M78 0q-21 0 -35 16t-14 38v392q0 22 14 38t35 16h68q12 0 15 -10.5t-4 -20.5q-42 -61 -42 -227q0 -175 113 -175q25 0 40.5 7.5t22 22.5t8 25.5t1.5 26.5v238q0 39 -28 86q-6 10 -2.5 18.5t15.5 8.5h71q16 0 26.5 -14t10.5 -32v-410q0 -18 -12 -31t-29 -13h-274zM117 622
q-14 0 -14 15v42q0 18 14 18h63q14 0 14 -17v-41q0 -17 -14 -17h-63zM242 622q-14 0 -14 15v42q0 18 14 18h63q14 0 14 -17v-41q0 -17 -14 -17h-63z" />
    <glyph glyph-name="dotlessi" unicode="&#x131;" horiz-adv-x="202" 
d="M156 473q0 27 -18 27h-75q-2 0 -5 -0.5t-8 -4t-4 -10.5q1 -4 9.5 -20.5t8.5 -33.5v-318q0 -49 -21 -84q-7 -10 -2 -19.5t23 -9.5h93q13 0 20 8.5t1 20.5q-21 44 -21 107v215z" />
    <glyph glyph-name="OE" unicode="&#x152;" horiz-adv-x="790" 
d="M82 0q-21 0 -37 15t-16 36v594q0 21 15 38t36 17h657q13 0 19.5 -3.5t4.5 -13.5t-5.5 -17.5t-13.5 -26.5q-16 -31 -25 -42t-21 -8.5t-24.5 11t-42.5 17t-68 8.5q-87 0 -111 -59q-16 -39 3 -68q10 -14 24 -14h233q21 0 34 -15t13 -36l-1 -43q0 -18 -4 -19.5t-17 6.5
q-18 10 -32.5 16.5t-50.5 14.5t-78 8q-132 0 -132 -176q-1 -69 39.5 -114t88.5 -45q24 0 45 2.5t38 8t29.5 10.5t25 12.5t18 11.5t14.5 11q11 10 15 9t4 -17v-92q0 -20 -9.5 -28.5t-31.5 -8.5h-636zM245 62q34 0 58.5 24t37.5 66t19 89t6 102q0 76 -9.5 138t-38 109
t-73.5 47t-73.5 -47t-38 -109t-9.5 -138q0 -55 6 -102t19 -89t37.5 -66t58.5 -24z" />
    <glyph glyph-name="oe" unicode="&#x153;" horiz-adv-x="696" 
d="M356 0h-5h-5h-264q-21 0 -37 15t-16 36v395q0 21 15 37.5t36 16.5h264h5h5h264q21 0 35 -16t14 -38v-140q0 -34 -20 -42q-8 -3 -18 -5t-28 -2.5t-30.5 -0.5h-41.5h-44h-13h-26.5t-20.5 -2.5t-17 -7t-9 -13.5t-4 -23q0 -147 127 -147q34 0 57.5 6t33.5 13t25 21q6 6 12 8
t10.5 -0.5t5.5 -9.5q1 -5 1 -26v-24q0 -21 -13 -36t-34 -15h-264zM211 62q90 0 90 188t-90 188t-90 -188t90 -188zM485 313h19.5h17h13.5t12 1t9 2.5t7.5 4t5 5.5t4 7.5t1.5 10.5t1 14q0 27 -25.5 53.5t-64.5 26.5t-65 -27.5t-26 -53.5q0 -9 0.5 -15t3 -11t4.5 -8t7.5 -5
t8.5 -3t12.5 -1.5t14.5 -0.5h18.5h21.5z" />
    <glyph glyph-name="circumflex" unicode="&#x2c6;" horiz-adv-x="418" 
d="M130 622q-23 0 -23.5 7t21.5 40q7 11 10 14.5t12.5 8.5t23.5 5h49h2h2h51h2q6 0 10.5 -1t9 -3t6.5 -3t5.5 -5t4 -4.5t4.5 -6.5l4 -5q22 -33 21.5 -40t-23.5 -7h-49q-15 0 -25 5t-12.5 8.5t-10.5 14.5q0 -1 -2.5 -4.5t-3 -4t-3 -4t-3.5 -4t-3.5 -3t-4.5 -3t-5.5 -2
t-6.5 -2t-7 -1t-9 -0.5h-47z" />
    <glyph glyph-name="endash" unicode="&#x2013;" horiz-adv-x="273" 
d="M48 220q-14 0 -14 15v42q0 18 14 18h179q14 0 14 -17v-41q0 -17 -14 -17h-179z" />
    <glyph glyph-name="quoteleft" unicode="&#x2018;" horiz-adv-x="123" 
d="M14 660q0 40 32 41q15 0 23 -5.5t6.5 -12.5t-10.5 -13q-18 -11 -15 -59q4 -19 37 -23h13q16 0 16 -17v-46q0 -20 -16 -20h-69q-16 0 -16 19v39z" />
    <glyph glyph-name="quoteright" unicode="&#x2019;" horiz-adv-x="124" 
d="M79 505q-15 0 -23 5.5t-6.5 12.5t10.5 13q18 11 15 59q-4 19 -37 23h-13q-16 0 -16 17v46q0 20 16 20h69q16 0 16 -19v-39l1 -97q0 -40 -32 -41z" />
    <glyph glyph-name="quotesinglbase" unicode="&#x201a;" horiz-adv-x="161" 
d="M27 63q0 20 16 20h69q16 0 16 -19v-39l1 -97q0 -40 -32 -41q-15 0 -23 5.5t-6.5 12.5t10.5 13q18 11 15 59q-4 19 -37 23h-13q-16 0 -16 17v46z" />
    <glyph glyph-name="quotedblleft" unicode="&#x201c;" horiz-adv-x="272" 
d="M161 660q0 40 32 41q15 0 23 -5.5t6.5 -12.5t-10.5 -13q-18 -11 -15 -59q4 -19 37 -23h13q16 0 16 -17v-46q0 -20 -16 -20h-69q-16 0 -16 19v39zM59 505q-16 0 -16 19v39l-1 97q0 40 32 41q15 0 23 -5.5t6.5 -12.5t-10.5 -13q-18 -11 -15 -59q4 -19 37 -23h13
q16 0 16 -17v-46q0 -20 -16 -20h-69z" />
    <glyph glyph-name="quotedblright" unicode="&#x201d;" horiz-adv-x="263" 
d="M202 505q-15 0 -23 5.5t-6.5 12.5t10.5 13q18 11 15 59q-4 19 -37 23h-13q-16 0 -16 17v46q0 20 16 20h69q16 0 16 -19v-39l1 -97q0 -40 -32 -41zM83 505q-15 0 -23 5.5t-6.5 12.5t10.5 13q18 11 15 59q-4 19 -37 23h-13q-16 0 -16 17v46q0 20 16 20h69q16 0 16 -19v-39
l1 -97q0 -40 -32 -41z" />
    <glyph glyph-name="quotedblbase" unicode="&#x201e;" horiz-adv-x="268" 
d="M143 64q0 20 16 20h69q16 0 16 -19v-39l1 -97q0 -40 -32 -41q-15 0 -23 5.5t-6.5 12.5t10.5 13q18 11 15 59q-4 19 -37 23h-13q-16 0 -16 17v46zM24 64q0 20 16 20h69q16 0 16 -19v-39l1 -97q0 -40 -32 -41q-15 0 -23 5.5t-6.5 12.5t10.5 13q18 11 15 59q-4 19 -37 23
h-13q-16 0 -16 17v46z" />
    <glyph glyph-name="guilsinglleft" unicode="&#x2039;" horiz-adv-x="291" 
d="M228 16q-31 0 -79 51t-83 109.5t-35 81.5q0 25 35 83t83 108.5t79 50.5h13q18 0 30 -12.5t12 -28.5v-52q0 -11 -3 -13t-9 2.5t-16 9t-21.5 7t-28.5 -5t-34 -26.5q-26 -28 -45 -66t-19 -59q0 -15 20 -55t44 -66q19 -21 36.5 -28t29 -3t21 10t14.5 12t8 2.5t3 -19.5v-52
q0 -16 -12 -28.5t-30 -12.5h-13z" />
    <glyph glyph-name="guilsinglright" unicode="&#x203a;" horiz-adv-x="291" 
d="M50 16q-18 0 -30 12.5t-12 28.5v52q0 16 3 19.5t8 -2.5t14.5 -12t21 -10t29 3t36.5 28q24 26 44 66t20 55q0 21 -19 59t-45 66q-17 19 -34 26.5t-28.5 5t-21.5 -7t-16 -9t-9 -2.5t-3 13v52q0 16 12 28.5t30 12.5h13q31 0 79 -50.5t83 -108.5t35 -83q0 -23 -35 -81.5
t-83 -109.5t-79 -51h-13z" />
    <glyph glyph-name="fraction" unicode="&#x2044;" horiz-adv-x="235" 
d="M127 680q0 20 16 20h69q16 0 16 -19l-124 -662q0 -19 -16 -19h-69q-16 0 -16 17z" />
    <glyph glyph-name="Euro" unicode="&#x20ac;" horiz-adv-x="525" 
d="M329 72q-122 0 -163 155h290q14 0 14 17v61q0 17 -14 17h-310q-14 0 -14 -18v-62q0 -15 14 -15h20q-12 49 -14 95l-1 25v24h305q14 0 14 17v61q0 17 -14 17h-310q-14 0 -14 -18v-62q0 -15 14 -15h5q2 52 11 95q33 155 167 155q120 0 167 -45q6 -6 12 -8t10.5 0.5t5.5 9.5
q1 5 1 70q0 21 -13 36t-34 15h-291q-68 0 -99 -35t-31 -106l-1 -419q0 -139 128 -139h294q21 0 34 15t13 36q0 78 -1 83q-2 11 -10.5 11.5t-17.5 -9.5q-30 -35 -63 -49.5t-104 -14.5z" />
    <glyph glyph-name="minus" unicode="&#x2212;" horiz-adv-x="402" 
d="M46 262q-14 0 -14 15v62q0 18 14 18h310q14 0 14 -17v-61q0 -17 -14 -17h-310z" />
    <glyph glyph-name="Ccedilla.s002" horiz-adv-x="472" 
d="M209 -38q0 31 -56 38h-67q-21 0 -37 15t-16 36l1 597q0 21 16 36t37 15h306q21 0 34 -15t13 -36q0 -78 -1 -83q-1 -7 -5.5 -9.5t-10.5 -0.5t-12 8q-67 64 -142 64q-36 0 -63 -20.5t-41.5 -50t-23 -71t-11 -73t-2.5 -65.5q0 -22 2 -49.5t11 -69.5t23 -75t41 -57t63 -24
q75 0 142 64q6 6 12 8t10.5 -0.5t5.5 -9.5q1 -5 1 -83q0 -21 -13 -36t-34 -15h-59q-56 -7 -56 -38q11 0 19.5 -8t8.5 -18v-105q0 -22 -30 -3q-19 13 -23.5 20t-0.5 10.5t10.5 11t6.5 18.5q0 15 -0.5 20.5t-5.5 15t-18 13t-35 3.5v22z" />
    <glyph glyph-name="Ccedilla.s003" horiz-adv-x="472" 
d="M268 72q75 0 142 64q6 6 12 8t10.5 -0.5t5.5 -9.5q1 -5 1 -83q0 -21 -13 -36t-34 -15h-114v-89q0 -14 -17 -14h-61q-17 0 -17 14v89h-97q-21 0 -37 15t-16 36l1 605q0 20 15 31.5t37 11.5h283q21 0 34 -15t13 -36q0 -65 -1 -70q-1 -7 -5.5 -9.5t-10.5 -0.5t-12 8
q-16 15 -25.5 22.5t-34.5 15t-59 7.5q-140 0 -140 -274q0 -22 2 -49.5t11 -69.5t23 -75t41 -57t63 -24z" />
    <glyph glyph-name="V.ss002" horiz-adv-x="600" 
d="M303 88q-37 0 -68.5 29.5t-51 73.5t-30 90.5t-10.5 85.5q0 15 -1 59.5t-0.5 71.5t3 64t11 63.5t22.5 43.5q8 9 4.5 20t-15.5 11h-88q-21 0 -35 -16t-14 -38v-123q0 -68 4.5 -132t19 -137.5t36.5 -127.5t61.5 -90t91.5 -36h202q17 0 29 13t12 31v610q0 18 -10 32t-27 14
h-73q-12 0 -15.5 -8.5t2.5 -18.5q28 -47 28 -86v-217q0 -282 -88 -282z" />
    <glyph glyph-name="M.ss02" horiz-adv-x="820" 
d="M250 638q24 0 42 -9t28.5 -29t17 -37.5t8.5 -50t2.5 -50t0 -54.5t-0.5 -46l-2 -298q0 -25 14.5 -44.5t37.5 -19.5h93q30 0 7 38q-39 61 -39 120v95.5v106.5v66l2 75v4l1 31q7 102 82 102q32 0 55.5 -11t37.5 -34.5t22.5 -44t11.5 -58t3.5 -56t0.5 -55.5v-18
q0 -210 -71 -318q-10 -14 -6 -28.5t21 -14.5h62q30 0 43.5 3t14.5 10t-3 15t-7.5 22t-0.5 27q40 170 46 350l8 197q0 31 -20 53.5t-49 22.5h-309h-4q-23 -2 -38.5 -20t-15.5 -42q2 -47 44.5 -101.5t70.5 -35.5v4l1 31l2 88q0 29 -18.5 51.5t-45.5 24.5h-5h-300
q-24 0 -41 -18.5t-17 -43.5v-574q0 -25 14.5 -44.5t37.5 -19.5h94q29 0 6 38q-14 23 -19 31.5t-12.5 34.5t-7.5 54v333q0 147 100 147z" />
    <glyph glyph-name="g.s002" horiz-adv-x="615" 
d="M166 -250q-41 0 -41 34v165q0 16 7.5 20t17.5 0.5t26 -13.5q30 -19 37 -30.5t-0.5 -17t-17.5 -19t-10 -31.5q0 -21 16 -31.5t67 -10.5q39 0 58.5 3t38 16t25 41t6.5 76v18q0 25 -44 30h-174q-21 0 -37 15t-16 36v395q0 21 15 37.5t36 16.5h264q21 0 35 -16t14 -38v-645
q0 -21 -16 -36t-37 -15h-270zM307 62q90 0 90 188v143q0 13 -22.5 29t-49.5 16q-59 0 -83.5 -43t-24.5 -145q0 -188 90 -188z" />
    <glyph glyph-name="j.s002" horiz-adv-x="444" 
d="M273 683q0 18 14 18h63q14 0 14 -17v-41q0 -17 -14 -17h-63q-14 0 -14 15v42zM363 477q0 27 -18 27h-75q-2 0 -5 -0.5t-8 -4t-4 -10.5q1 -4 9.5 -20.5t8.5 -33.5v-467q0 -79 -17.5 -113.5t-55.5 -34.5q-27 0 -47.5 10.5t-20.5 33.5q0 11 9.5 20.5t16.5 14t-1 15.5t-37 30
q-14 9 -25.5 11.5t-18.5 -2t-7 -16.5v-149q0 -34 41 -34h203q21 0 37 15t16 36v311v9v15v215z" />
    <glyph glyph-name="z.s002" horiz-adv-x="470" 
d="M188 438q34 0 57.5 -8.5t30 -22.5t-4.5 -30q-41 -55 -103.5 -132t-91 -115.5t-28.5 -52.5v-63q0 -14 18 -14h305q17 0 29 13t12 31v62q0 6 -5 8.5t-13.5 0.5t-19.5 -9q-68 -44 -128 -44q-100 0 -18 121q24 35 70.5 92.5t74.5 95.5t28 52l1 63q0 14 -17 14h-307
q-17 0 -29 -13t-12 -31v-62q0 -6 5.5 -8.5t14.5 -0.5t18 9q56 44 113 44z" />
    <glyph glyph-name="ccedilla.s003" horiz-adv-x="412" 
d="M243 63q34 0 57.5 6t33.5 13t25 21q6 6 12 8t10.5 -0.5t5.5 -9.5q1 -5 1 -50q0 -21 -13 -36t-34 -15h-75v-89q0 -14 -17 -14h-61q-17 0 -17 14v89h-94q-21 0 -37 15t-16 36l1 406q0 20 15 31.5t37 11.5h263q21 0 34 -15t13 -36q0 -38 -1 -43q-1 -7 -5.5 -9.5t-10.5 -0.5
t-12 8q-19 18 -42 25.5t-74 7.5q-35 0 -59.5 -11t-37.5 -26.5t-20 -43t-8.5 -49.5t-1.5 -56q0 -188 128 -188z" />
    <glyph glyph-name="x.s003" horiz-adv-x="529" 
d="M104 479q0 18 14 18h63q14 0 14 -17v-41q49 -42 74 -69q25 27 74 69v41q0 17 14 17h63q14 0 14 -18v-73h-14q-37 0 -105 -88q90 -114 131 -275q12 -46 -19 -46h-73q-5 0 -8 4t-4.5 11t-2.5 13t-2 15t-1 11q-1 6 -3 25.5t-4.5 29.5t-9 31t-19 48t-31.5 62
q-19 -35 -31.5 -62t-19 -48t-9 -31t-4.5 -29.5t-3 -25.5q0 -2 -1 -11t-2 -15t-2.5 -13t-4.5 -11t-8 -4h-73q-31 0 -19 46q41 161 131 275q-68 88 -105 88h-14v73z" />
    <glyph glyph-name="x.ss02" horiz-adv-x="441" 
d="M373 409h-14q-34 0 -85 -117q55 -101 93 -246q12 -46 -19 -46h-66q-7 0 -11.5 3.5t-7 11.5t-3.5 13t-2 15t-1 11q-12 76 -25 123q-14 -47 -26 -123q0 -1 -1 -11t-2 -15t-3.5 -13t-7 -11.5t-11.5 -3.5h-66q-31 0 -19 46q38 145 93 246q-51 117 -85 117h-14v73q0 18 14 18
h63q14 0 14 -17v-41l51 -78l50 78v41q0 17 14 17h63q14 0 14 -18v-73z" />
    <glyph glyph-name="y.ss02" horiz-adv-x="510" 
d="M115 -239q-41 0 -41 34v165q0 16 7.5 20t17.5 0.5t26 -13.5q30 -19 37 -30.5t-0.5 -17t-17.5 -19t-10 -31.5q0 -21 16 -31.5t67 -10.5q39 0 58.5 3t38 16t25 41t6.5 76v7q0 25 -44 30h-178q-21 0 -35 16t-14 38v392q0 22 14 38t35 16h68q12 0 15 -10.5t-4 -20.5
q-42 -61 -42 -227q0 -175 113 -175q25 0 40.5 7.5t22 22.5t8 25.5t1.5 26.5v238q0 39 -28 86q-6 10 -2.5 18.5t15.5 8.5h71q17 0 27 -14t10 -32v-642q0 -21 -16 -36t-37 -15h-270z" />
    <glyph glyph-name="y.ss03" horiz-adv-x="426" 
d="M275 0q-130 0 -188 83t-58 240v123q0 22 14 38t35 16h72q12 0 15.5 -11t-4.5 -20q-12 -14 -20 -32t-12 -31.5t-6 -38.5t-2.5 -37t0 -44.5t0.5 -43.5q0 -74 41 -114t83 -40q59 0 59 82v217q0 39 -28 86q-6 10 -2.5 18.5t15.5 8.5h71q16 0 26.5 -14t10.5 -32v-639
q0 -21 -16 -36t-37 -15h-270q-41 0 -41 34v165q0 16 7.5 20t17.5 0.5t26 -13.5q30 -19 37 -30.5t-0.5 -17t-17.5 -19t-10 -31.5q0 -21 16 -31.5t67 -10.5q39 0 58.5 3t38 16t25 41t6.5 76v7q0 19 -28 27h-1z" />
    <glyph glyph-name="four.s002" horiz-adv-x="572" 
d="M411 116v37q0 23 44 28h27q21 0 21 35.5t-21 35.5h-27h-44v28l-1 282q0 65 21 109q6 12 -1 20.5t-20 8.5h-122q-35 0 -103.5 -76t-120.5 -155q-29 -44 -34 -96t9.5 -94t44 -70t65.5 -28h123q41 -5 44 -25v-3l11 28h73l11 -27l-1 27h45q36 4 -28 29q-8 3 -18 7
q62 21 58 30q-1 4 -12 5q-44 5 -44 28l-22 -57l-6 2l3 -8l-3 -9l6 2l11 -29h10l-2 36l-19 6l-3 -6l3 -7l19 7q-1 21 -5 42q-5 29 -17 34.5t-26 -2.5q-30 -9 -37 -19.5t-8 -55.5q-68 -25 -53 -33q3 -1 10 -2h55l17 44l-29 -9l1 -35v-25v-43q0 -49 -21 -84q-7 -10 -2 -19.5
t23 -9.5h95q13 0 20 8.5t1 20.5q-2 3 -6 11t-6 12.5t-4.5 13.5t-3.5 21.5t-1 28.5zM316 547q0 -26 -1 -76.5t-1 -84.5q0 -49 -13 -79.5t-31 -37.5t-37 -9.5t-32 3.5q-61 13 -75 77t39 143q35 50 80 86q71 56 71 -22z" />
    <glyph glyph-name="bracketleft.s002" horiz-adv-x="329" 
d="M35 733q0 17 14 17h228q14 0 14 -17v-41q0 -17 -14 -17h-102q-44 -5 -44 -29v-699q0 -24 44 -29h105q14 0 14 -17v-41q0 -17 -14 -17h-231q-14 0 -14 15v875z" />
    <glyph glyph-name="bracketright.s002" horiz-adv-x="329" 
d="M294 -142q0 -15 -14 -15h-231q-14 0 -14 17v41q0 17 14 17h105q44 5 44 29v699q0 24 -44 29h-102q-14 0 -14 17v41q0 17 14 17h228q14 0 14 -17v-875z" />
    <glyph glyph-name="ampersand.s002" horiz-adv-x="543" 
d="M461 295q0 15 0.5 30t1 25.5t1 20.5t0.5 16.5t-1 12.5t-2.5 9.5t-4.5 6t-7 3.5t-10 1q-18 -1 -40 -8q-20 -6 -24 -7.5t-4.5 -7t4.5 -11.5t9 -25t4 -45l-78 33l-6 3t-5 2t-3.5 0.5t-4 -0.5t-3.5 -1.5t-5.5 -4t-6.5 -6t-9.5 -8t-12.5 -10.5q-13 -10 -10.5 -15.5t28.5 -16.5
l117 -51q0 -37 -5.5 -64t-20 -54t-45.5 -42t-78 -15q-44 0 -72 34.5t-28 82.5q0 30 14 60t34 51.5t40.5 38.5t34.5 27.5t14 11.5q0 2 -12.5 11.5t-30.5 25.5t-36 35t-30.5 44t-12.5 48q0 51 22.5 71.5t54.5 20.5q36 0 55 -26t19 -53q0 -33 -15.5 -54t-50.5 -48
q8 -7 23.5 -21.5t24.5 -22.5t10 -7q55 37 110 54v196q-1 22 -13 38t-32 16h-259q-20 0 -34 -16t-14 -38v-184q0 -6 4.5 -13.5t15.5 -18.5l17.5 -17.5t23 -21t19.5 -17.5q-6 -6 -29 -27.5t-30.5 -30t-21 -25t-18.5 -30.5t-5 -28v-183q0 -21 14.5 -36t35.5 -15h330q21 0 34 15
t13 36l1 165q27 -7 39 -3.5t13 20.5q0 2 0.5 8t0.5 8.5v8t-0.5 8t-1.5 6.5t-2.5 6t-3.5 4.5t-5.5 4t-7.5 1.5l-43 3l-61 26l1 -75l37 -16l34 -10z" />
    </font>
</defs>
</svg>
