<?xml version="1.0" encoding="UTF-8"?>
<svg xmlns="http://www.w3.org/2000/svg" xmlns:ns0="http://www.w3.org/2000/svg" version="1.1" viewBox="0 0 800 800">
  <defs>
    <style>
      .cls-1 {
        fill: none;
      }

      .cls-2 {
        fill: #fff;
      }

      .cls-3 {
        opacity: .2;
      }
    </style>
  </defs>
  <!-- Generator: Adobe Illustrator 28.6.0, SVG Export Plug-In . SVG Version: 1.2.0 Build 709)  -->
  <g>
    <g id="Lager_1" class="cls-3">
      <path class="cls-1" d=""/>
      <path class="cls-1" d=""/>
      <rect class="cls-2" y="0" width="800" height="800"/>
      <g>
        <rect class="cls-1" y="0" width="44.4" height="44.4"/>
        <rect class="cls-1" x="44.4" y="0" width="44.4" height="44.4"/>
        <rect class="cls-1" x="88.9" y="0" width="44.4" height="44.4"/>
        <rect class="cls-1" x="133.3" y="0" width="44.4" height="44.4"/>
        <rect class="cls-1" x="177.8" y="0" width="44.4" height="44.4"/>
        <rect class="cls-1" x="222.2" y="0" width="44.4" height="44.4"/>
        <rect class="cls-1" x="266.7" y="0" width="44.4" height="44.4"/>
        <rect class="cls-1" x="311.1" y="0" width="44.4" height="44.4"/>
        <rect class="cls-1" x="355.6" y="0" width="44.4" height="44.4"/>
        <rect class="cls-1" x="400" y="0" width="44.4" height="44.4"/>
        <rect class="cls-1" x="444.4" y="0" width="44.4" height="44.4"/>
        <rect class="cls-1" x="488.9" y="0" width="44.4" height="44.4"/>
        <rect class="cls-1" x="533.3" y="0" width="44.4" height="44.4"/>
        <rect class="cls-1" x="577.8" y="0" width="44.4" height="44.4"/>
        <rect class="cls-1" x="622.2" y="0" width="44.4" height="44.4"/>
        <rect class="cls-1" x="666.7" y="0" width="44.4" height="44.4"/>
        <rect class="cls-1" x="711.1" y="0" width="44.4" height="44.4"/>
        <rect class="cls-1" x="755.6" y="0" width="44.4" height="44.4"/>
        <rect class="cls-1" x="800" y="0" width="44.4" height="44.4"/>
        <rect class="cls-1" y="44.4" width="44.4" height="44.4"/>
        <rect class="cls-1" x="44.4" y="44.4" width="44.4" height="44.4"/>
        <rect class="cls-1" x="88.9" y="44.4" width="44.4" height="44.4"/>
        <rect class="cls-1" x="133.3" y="44.4" width="44.4" height="44.4"/>
        <rect class="cls-1" x="177.8" y="44.4" width="44.4" height="44.4"/>
        <rect class="cls-1" x="222.2" y="44.4" width="44.4" height="44.4"/>
        <rect class="cls-1" x="266.7" y="44.4" width="44.4" height="44.4"/>
        <rect class="cls-1" x="311.1" y="44.4" width="44.4" height="44.4"/>
        <rect class="cls-1" x="355.6" y="44.4" width="44.4" height="44.4"/>
        <rect class="cls-1" x="400" y="44.4" width="44.4" height="44.4"/>
        <rect class="cls-1" x="444.4" y="44.4" width="44.4" height="44.4"/>
        <rect class="cls-1" x="488.9" y="44.4" width="44.4" height="44.4"/>
        <rect class="cls-1" x="533.3" y="44.4" width="44.4" height="44.4"/>
        <rect class="cls-1" x="577.8" y="44.4" width="44.4" height="44.4"/>
        <rect class="cls-1" x="622.2" y="44.4" width="44.4" height="44.4"/>
        <rect class="cls-1" x="666.7" y="44.4" width="44.4" height="44.4"/>
        <rect class="cls-1" x="711.1" y="44.4" width="44.4" height="44.4"/>
        <rect class="cls-1" x="755.6" y="44.4" width="44.4" height="44.4"/>
        <rect class="cls-1" x="800" y="44.4" width="44.4" height="44.4"/>
        <rect class="cls-1" y="88.9" width="44.4" height="44.4"/>
        <rect class="cls-1" x="44.4" y="88.9" width="44.4" height="44.4"/>
        <rect class="cls-1" x="88.9" y="88.9" width="44.4" height="44.4"/>
        <rect class="cls-1" x="133.3" y="88.9" width="44.4" height="44.4"/>
        <rect class="cls-1" x="177.8" y="88.9" width="44.4" height="44.4"/>
        <rect class="cls-1" x="222.2" y="88.9" width="44.4" height="44.4"/>
        <rect class="cls-1" x="266.7" y="88.9" width="44.4" height="44.4"/>
        <rect class="cls-1" x="311.1" y="88.9" width="44.4" height="44.4"/>
        <rect class="cls-1" x="355.6" y="88.9" width="44.4" height="44.4"/>
        <rect class="cls-1" x="400" y="88.9" width="44.4" height="44.4"/>
        <rect class="cls-1" x="444.4" y="88.9" width="44.4" height="44.4"/>
        <rect class="cls-1" x="488.9" y="88.9" width="44.4" height="44.4"/>
        <rect class="cls-1" x="533.3" y="88.9" width="44.4" height="44.4"/>
        <rect class="cls-1" x="577.8" y="88.9" width="44.4" height="44.4"/>
        <rect class="cls-1" x="622.2" y="88.9" width="44.4" height="44.4"/>
        <rect class="cls-1" x="666.7" y="88.9" width="44.4" height="44.4"/>
        <rect class="cls-1" x="711.1" y="88.9" width="44.4" height="44.4"/>
        <rect class="cls-1" x="755.6" y="88.9" width="44.4" height="44.4"/>
        <rect class="cls-1" x="800" y="88.9" width="44.4" height="44.4"/>
        <rect class="cls-1" y="133.3" width="44.4" height="44.4"/>
        <rect class="cls-1" x="44.4" y="133.3" width="44.4" height="44.4"/>
        <rect class="cls-1" x="88.9" y="133.3" width="44.4" height="44.4"/>
        <rect class="cls-1" x="133.3" y="133.3" width="44.4" height="44.4"/>
        <rect class="cls-1" x="177.8" y="133.3" width="44.4" height="44.4"/>
        <rect class="cls-1" x="222.2" y="133.3" width="44.4" height="44.4"/>
        <rect class="cls-1" x="266.7" y="133.3" width="44.4" height="44.4"/>
        <rect class="cls-1" x="311.1" y="133.3" width="44.4" height="44.4"/>
        <rect class="cls-1" x="355.6" y="133.3" width="44.4" height="44.4"/>
        <rect class="cls-1" x="400" y="133.3" width="44.4" height="44.4"/>
        <rect class="cls-1" x="444.4" y="133.3" width="44.4" height="44.4"/>
        <rect class="cls-1" x="488.9" y="133.3" width="44.4" height="44.4"/>
        <rect class="cls-1" x="533.3" y="133.3" width="44.4" height="44.4"/>
        <rect class="cls-1" x="577.8" y="133.3" width="44.4" height="44.4"/>
        <rect class="cls-1" x="622.2" y="133.3" width="44.4" height="44.4"/>
        <rect class="cls-1" x="666.7" y="133.3" width="44.4" height="44.4"/>
        <rect class="cls-1" x="711.1" y="133.3" width="44.4" height="44.4"/>
        <rect class="cls-1" x="755.6" y="133.3" width="44.4" height="44.4"/>
        <rect class="cls-1" x="800" y="133.3" width="44.4" height="44.4"/>
        <rect class="cls-1" y="177.8" width="44.4" height="44.4"/>
        <rect class="cls-1" x="44.4" y="177.8" width="44.4" height="44.4"/>
        <rect class="cls-1" x="88.9" y="177.8" width="44.4" height="44.4"/>
        <rect class="cls-1" x="133.3" y="177.8" width="44.4" height="44.4"/>
        <rect class="cls-1" x="177.8" y="177.8" width="44.4" height="44.4"/>
        <rect class="cls-1" x="222.2" y="177.8" width="44.4" height="44.4"/>
        <rect class="cls-1" x="266.7" y="177.8" width="44.4" height="44.4"/>
        <rect class="cls-1" x="311.1" y="177.8" width="44.4" height="44.4"/>
        <rect class="cls-1" x="355.6" y="177.8" width="44.4" height="44.4"/>
        <rect class="cls-1" x="400" y="177.8" width="44.4" height="44.4"/>
        <rect class="cls-1" x="444.4" y="177.8" width="44.4" height="44.4"/>
        <rect class="cls-1" x="488.9" y="177.8" width="44.4" height="44.4"/>
        <rect class="cls-1" x="533.3" y="177.8" width="44.4" height="44.4"/>
        <rect class="cls-1" x="577.8" y="177.8" width="44.4" height="44.4"/>
        <rect class="cls-1" x="622.2" y="177.8" width="44.4" height="44.4"/>
        <rect class="cls-1" x="666.7" y="177.8" width="44.4" height="44.4"/>
        <rect class="cls-1" x="711.1" y="177.8" width="44.4" height="44.4"/>
        <rect class="cls-1" x="755.6" y="177.8" width="44.4" height="44.4"/>
        <rect class="cls-1" x="800" y="177.8" width="44.4" height="44.4"/>
        <rect class="cls-1" y="222.2" width="44.4" height="44.4"/>
        <rect class="cls-1" x="44.4" y="222.2" width="44.4" height="44.4"/>
        <rect class="cls-1" x="88.9" y="222.2" width="44.4" height="44.4"/>
        <rect class="cls-1" x="133.3" y="222.2" width="44.4" height="44.4"/>
        <rect class="cls-1" x="177.8" y="222.2" width="44.4" height="44.4"/>
        <rect class="cls-1" x="222.2" y="222.2" width="44.4" height="44.4"/>
        <rect class="cls-1" x="266.7" y="222.2" width="44.4" height="44.4"/>
        <rect class="cls-1" x="311.1" y="222.2" width="44.4" height="44.4"/>
        <rect class="cls-1" x="355.6" y="222.2" width="44.4" height="44.4"/>
        <rect class="cls-1" x="400" y="222.2" width="44.4" height="44.4"/>
        <rect class="cls-1" x="444.4" y="222.2" width="44.4" height="44.4"/>
        <rect class="cls-1" x="488.9" y="222.2" width="44.4" height="44.4"/>
        <rect class="cls-1" x="533.3" y="222.2" width="44.4" height="44.4"/>
        <rect class="cls-1" x="577.8" y="222.2" width="44.4" height="44.4"/>
        <rect class="cls-1" x="622.2" y="222.2" width="44.4" height="44.4"/>
        <rect class="cls-1" x="666.7" y="222.2" width="44.4" height="44.4"/>
        <rect class="cls-1" x="711.1" y="222.2" width="44.4" height="44.4"/>
        <rect class="cls-1" x="755.6" y="222.2" width="44.4" height="44.4"/>
        <rect class="cls-1" x="800" y="222.2" width="44.4" height="44.4"/>
        <rect class="cls-1" y="266.7" width="44.4" height="44.4"/>
        <rect class="cls-1" x="44.4" y="266.7" width="44.4" height="44.4"/>
        <rect class="cls-1" x="88.9" y="266.7" width="44.4" height="44.4"/>
        <rect class="cls-1" x="133.3" y="266.7" width="44.4" height="44.4"/>
        <rect class="cls-1" x="177.8" y="266.7" width="44.4" height="44.4"/>
        <rect class="cls-1" x="222.2" y="266.7" width="44.4" height="44.4"/>
        <rect class="cls-1" x="266.7" y="266.7" width="44.4" height="44.4"/>
        <rect class="cls-1" x="311.1" y="266.7" width="44.4" height="44.4"/>
        <rect class="cls-1" x="355.6" y="266.7" width="44.4" height="44.4"/>
        <rect class="cls-1" x="400" y="266.7" width="44.4" height="44.4"/>
        <rect class="cls-1" x="444.4" y="266.7" width="44.4" height="44.4"/>
        <rect class="cls-1" x="488.9" y="266.7" width="44.4" height="44.4"/>
        <rect class="cls-1" x="533.3" y="266.7" width="44.4" height="44.4"/>
        <rect class="cls-1" x="577.8" y="266.7" width="44.4" height="44.4"/>
        <rect class="cls-1" x="622.2" y="266.7" width="44.4" height="44.4"/>
        <rect class="cls-1" x="666.7" y="266.7" width="44.4" height="44.4"/>
        <rect class="cls-1" x="711.1" y="266.7" width="44.4" height="44.4"/>
        <rect class="cls-1" x="755.6" y="266.7" width="44.4" height="44.4"/>
        <rect class="cls-1" x="800" y="266.7" width="44.4" height="44.4"/>
        <rect class="cls-1" y="311.1" width="44.4" height="44.4"/>
        <rect class="cls-1" x="44.4" y="311.1" width="44.4" height="44.4"/>
        <rect class="cls-1" x="88.9" y="311.1" width="44.4" height="44.4"/>
        <rect class="cls-1" x="133.3" y="311.1" width="44.4" height="44.4"/>
        <rect class="cls-1" x="177.8" y="311.1" width="44.4" height="44.4"/>
        <rect class="cls-1" x="222.2" y="311.1" width="44.4" height="44.4"/>
        <rect class="cls-1" x="266.7" y="311.1" width="44.4" height="44.4"/>
        <rect class="cls-1" x="311.1" y="311.1" width="44.4" height="44.4"/>
        <rect class="cls-1" x="355.6" y="311.1" width="44.4" height="44.4"/>
        <rect class="cls-1" x="400" y="311.1" width="44.4" height="44.4"/>
        <rect class="cls-1" x="444.4" y="311.1" width="44.4" height="44.4"/>
        <rect class="cls-1" x="488.9" y="311.1" width="44.4" height="44.4"/>
        <rect class="cls-1" x="533.3" y="311.1" width="44.4" height="44.4"/>
        <rect class="cls-1" x="577.8" y="311.1" width="44.4" height="44.4"/>
        <rect class="cls-1" x="622.2" y="311.1" width="44.4" height="44.4"/>
        <rect class="cls-1" x="666.7" y="311.1" width="44.4" height="44.4"/>
        <rect class="cls-1" x="711.1" y="311.1" width="44.4" height="44.4"/>
        <rect class="cls-1" x="755.6" y="311.1" width="44.4" height="44.4"/>
        <rect class="cls-1" x="800" y="311.1" width="44.4" height="44.4"/>
        <rect class="cls-1" y="355.6" width="44.4" height="44.4"/>
        <rect class="cls-1" x="44.4" y="355.6" width="44.4" height="44.4"/>
        <rect class="cls-1" x="88.9" y="355.6" width="44.4" height="44.4"/>
        <rect class="cls-1" x="133.3" y="355.6" width="44.4" height="44.4"/>
        <rect class="cls-1" x="177.8" y="355.6" width="44.4" height="44.4"/>
        <rect class="cls-1" x="222.2" y="355.6" width="44.4" height="44.4"/>
        <rect class="cls-1" x="266.7" y="355.6" width="44.4" height="44.4"/>
        <rect class="cls-1" x="311.1" y="355.6" width="44.4" height="44.4"/>
        <rect class="cls-1" x="355.6" y="355.6" width="44.4" height="44.4"/>
        <rect class="cls-1" x="400" y="355.6" width="44.4" height="44.4"/>
        <rect class="cls-1" x="444.4" y="355.6" width="44.4" height="44.4"/>
        <rect class="cls-1" x="488.9" y="355.6" width="44.4" height="44.4"/>
        <rect class="cls-1" x="533.3" y="355.6" width="44.4" height="44.4"/>
        <rect class="cls-1" x="577.8" y="355.6" width="44.4" height="44.4"/>
        <rect class="cls-1" x="622.2" y="355.6" width="44.4" height="44.4"/>
        <rect class="cls-1" x="666.7" y="355.6" width="44.4" height="44.4"/>
        <rect class="cls-1" x="711.1" y="355.6" width="44.4" height="44.4"/>
        <rect class="cls-1" x="755.6" y="355.6" width="44.4" height="44.4"/>
        <rect class="cls-1" x="800" y="355.6" width="44.4" height="44.4"/>
        <rect class="cls-1" y="400" width="44.4" height="44.4"/>
        <rect class="cls-1" x="44.4" y="400" width="44.4" height="44.4"/>
        <rect class="cls-1" x="88.9" y="400" width="44.4" height="44.4"/>
        <rect class="cls-1" x="133.3" y="400" width="44.4" height="44.4"/>
        <rect class="cls-1" x="177.8" y="400" width="44.4" height="44.4"/>
        <rect class="cls-1" x="222.2" y="400" width="44.4" height="44.4"/>
        <rect class="cls-1" x="266.7" y="400" width="44.4" height="44.4"/>
        <rect class="cls-1" x="311.1" y="400" width="44.4" height="44.4"/>
        <rect class="cls-1" x="355.6" y="400" width="44.4" height="44.4"/>
        <rect class="cls-1" x="400" y="400" width="44.4" height="44.4"/>
        <rect class="cls-1" x="444.4" y="400" width="44.4" height="44.4"/>
        <rect class="cls-1" x="488.9" y="400" width="44.4" height="44.4"/>
        <rect class="cls-1" x="533.3" y="400" width="44.4" height="44.4"/>
        <rect class="cls-1" x="577.8" y="400" width="44.4" height="44.4"/>
        <rect class="cls-1" x="622.2" y="400" width="44.4" height="44.4"/>
        <rect class="cls-1" x="666.7" y="400" width="44.4" height="44.4"/>
        <rect class="cls-1" x="711.1" y="400" width="44.4" height="44.4"/>
        <rect class="cls-1" x="755.6" y="400" width="44.4" height="44.4"/>
        <rect class="cls-1" x="800" y="400" width="44.4" height="44.4"/>
        <rect class="cls-1" y="444.4" width="44.4" height="44.4"/>
        <rect class="cls-1" x="44.4" y="444.4" width="44.4" height="44.4"/>
        <rect class="cls-1" x="88.9" y="444.4" width="44.4" height="44.4"/>
        <rect class="cls-1" x="133.3" y="444.4" width="44.4" height="44.4"/>
        <rect class="cls-1" x="177.8" y="444.4" width="44.4" height="44.4"/>
        <rect class="cls-1" x="222.2" y="444.4" width="44.4" height="44.4"/>
        <rect class="cls-1" x="266.7" y="444.4" width="44.4" height="44.4"/>
        <rect class="cls-1" x="311.1" y="444.4" width="44.4" height="44.4"/>
        <rect class="cls-1" x="355.6" y="444.4" width="44.4" height="44.4"/>
        <rect class="cls-1" x="400" y="444.4" width="44.4" height="44.4"/>
        <rect class="cls-1" x="444.4" y="444.4" width="44.4" height="44.4"/>
        <rect class="cls-1" x="488.9" y="444.4" width="44.4" height="44.4"/>
        <rect class="cls-1" x="533.3" y="444.4" width="44.4" height="44.4"/>
        <rect class="cls-1" x="577.8" y="444.4" width="44.4" height="44.4"/>
        <rect class="cls-1" x="622.2" y="444.4" width="44.4" height="44.4"/>
        <rect class="cls-1" x="666.7" y="444.4" width="44.4" height="44.4"/>
        <rect class="cls-1" x="711.1" y="444.4" width="44.4" height="44.4"/>
        <rect class="cls-1" x="755.6" y="444.4" width="44.4" height="44.4"/>
        <rect class="cls-1" x="800" y="444.4" width="44.4" height="44.4"/>
        <rect class="cls-1" y="488.9" width="44.4" height="44.4"/>
        <rect class="cls-1" x="44.4" y="488.9" width="44.4" height="44.4"/>
        <rect class="cls-1" x="88.9" y="488.9" width="44.4" height="44.4"/>
        <rect class="cls-1" x="133.3" y="488.9" width="44.4" height="44.4"/>
        <rect class="cls-1" x="177.8" y="488.9" width="44.4" height="44.4"/>
        <rect class="cls-1" x="222.2" y="488.9" width="44.4" height="44.4"/>
        <rect class="cls-1" x="266.7" y="488.9" width="44.4" height="44.4"/>
        <rect class="cls-1" x="311.1" y="488.9" width="44.4" height="44.4"/>
        <rect class="cls-1" x="355.6" y="488.9" width="44.4" height="44.4"/>
        <rect class="cls-1" x="400" y="488.9" width="44.4" height="44.4"/>
        <rect class="cls-1" x="444.4" y="488.9" width="44.4" height="44.4"/>
        <rect class="cls-1" x="488.9" y="488.9" width="44.4" height="44.4"/>
        <rect class="cls-1" x="533.3" y="488.9" width="44.4" height="44.4"/>
        <rect class="cls-1" x="577.8" y="488.9" width="44.4" height="44.4"/>
        <rect class="cls-1" x="622.2" y="488.9" width="44.4" height="44.4"/>
        <rect class="cls-1" x="666.7" y="488.9" width="44.4" height="44.4"/>
        <rect class="cls-1" x="711.1" y="488.9" width="44.4" height="44.4"/>
        <rect class="cls-1" x="755.6" y="488.9" width="44.4" height="44.4"/>
        <rect class="cls-1" x="800" y="488.9" width="44.4" height="44.4"/>
        <rect class="cls-1" y="533.3" width="44.4" height="44.4"/>
        <rect class="cls-1" x="44.4" y="533.3" width="44.4" height="44.4"/>
        <rect class="cls-1" x="88.9" y="533.3" width="44.4" height="44.4"/>
        <rect class="cls-1" x="133.3" y="533.3" width="44.4" height="44.4"/>
        <rect class="cls-1" x="177.8" y="533.3" width="44.4" height="44.4"/>
        <rect class="cls-1" x="222.2" y="533.3" width="44.4" height="44.4"/>
        <rect class="cls-1" x="266.7" y="533.3" width="44.4" height="44.4"/>
        <rect class="cls-1" x="311.1" y="533.3" width="44.4" height="44.4"/>
        <rect class="cls-1" x="355.6" y="533.3" width="44.4" height="44.4"/>
        <rect class="cls-1" x="400" y="533.3" width="44.4" height="44.4"/>
        <rect class="cls-1" x="444.4" y="533.3" width="44.4" height="44.4"/>
        <rect class="cls-1" x="488.9" y="533.3" width="44.4" height="44.4"/>
        <rect class="cls-1" x="533.3" y="533.3" width="44.4" height="44.4"/>
        <rect class="cls-1" x="577.8" y="533.3" width="44.4" height="44.4"/>
        <rect class="cls-1" x="622.2" y="533.3" width="44.4" height="44.4"/>
        <rect class="cls-1" x="666.7" y="533.3" width="44.4" height="44.4"/>
        <rect class="cls-1" x="711.1" y="533.3" width="44.4" height="44.4"/>
        <rect class="cls-1" x="755.6" y="533.3" width="44.4" height="44.4"/>
        <rect class="cls-1" x="800" y="533.3" width="44.4" height="44.4"/>
        <rect class="cls-1" y="577.8" width="44.4" height="44.4"/>
        <rect class="cls-1" x="44.4" y="577.8" width="44.4" height="44.4"/>
        <rect class="cls-1" x="88.9" y="577.8" width="44.4" height="44.4"/>
        <rect class="cls-1" x="133.3" y="577.8" width="44.4" height="44.4"/>
        <rect class="cls-1" x="177.8" y="577.8" width="44.4" height="44.4"/>
        <rect class="cls-1" x="222.2" y="577.8" width="44.4" height="44.4"/>
        <rect class="cls-1" x="266.7" y="577.8" width="44.4" height="44.4"/>
        <rect class="cls-1" x="311.1" y="577.8" width="44.4" height="44.4"/>
        <rect class="cls-1" x="355.6" y="577.8" width="44.4" height="44.4"/>
        <rect class="cls-1" x="400" y="577.8" width="44.4" height="44.4"/>
        <rect class="cls-1" x="444.4" y="577.8" width="44.4" height="44.4"/>
        <rect class="cls-1" x="488.9" y="577.8" width="44.4" height="44.4"/>
        <rect class="cls-1" x="533.3" y="577.8" width="44.4" height="44.4"/>
        <rect class="cls-1" x="577.8" y="577.8" width="44.4" height="44.4"/>
        <rect class="cls-1" x="622.2" y="577.8" width="44.4" height="44.4"/>
        <rect class="cls-1" x="666.7" y="577.8" width="44.4" height="44.4"/>
        <rect class="cls-1" x="711.1" y="577.8" width="44.4" height="44.4"/>
        <rect class="cls-1" x="755.6" y="577.8" width="44.4" height="44.4"/>
        <rect class="cls-1" x="800" y="577.8" width="44.4" height="44.4"/>
        <rect class="cls-1" y="622.2" width="44.4" height="44.4"/>
        <rect class="cls-1" x="44.4" y="622.2" width="44.4" height="44.4"/>
        <rect class="cls-1" x="88.9" y="622.2" width="44.4" height="44.4"/>
        <rect class="cls-1" x="133.3" y="622.2" width="44.4" height="44.4"/>
        <rect class="cls-1" x="177.8" y="622.2" width="44.4" height="44.4"/>
        <rect class="cls-1" x="222.2" y="622.2" width="44.4" height="44.4"/>
        <rect class="cls-1" x="266.7" y="622.2" width="44.4" height="44.4"/>
        <rect class="cls-1" x="311.1" y="622.2" width="44.4" height="44.4"/>
        <rect class="cls-1" x="355.6" y="622.2" width="44.4" height="44.4"/>
        <rect class="cls-1" x="400" y="622.2" width="44.4" height="44.4"/>
        <rect class="cls-1" x="444.4" y="622.2" width="44.4" height="44.4"/>
        <rect class="cls-1" x="488.9" y="622.2" width="44.4" height="44.4"/>
        <rect class="cls-1" x="533.3" y="622.2" width="44.4" height="44.4"/>
        <rect class="cls-1" x="577.8" y="622.2" width="44.4" height="44.4"/>
        <rect class="cls-1" x="622.2" y="622.2" width="44.4" height="44.4"/>
        <rect class="cls-1" x="666.7" y="622.2" width="44.4" height="44.4"/>
        <rect class="cls-1" x="711.1" y="622.2" width="44.4" height="44.4"/>
        <rect class="cls-1" x="755.6" y="622.2" width="44.4" height="44.4"/>
        <rect class="cls-1" x="800" y="622.2" width="44.4" height="44.4"/>
        <rect class="cls-1" y="666.7" width="44.4" height="44.4"/>
        <rect class="cls-1" x="44.4" y="666.7" width="44.4" height="44.4"/>
        <rect class="cls-1" x="88.9" y="666.7" width="44.4" height="44.4"/>
        <rect class="cls-1" x="133.3" y="666.7" width="44.4" height="44.4"/>
        <rect class="cls-1" x="177.8" y="666.7" width="44.4" height="44.4"/>
        <rect class="cls-1" x="222.2" y="666.7" width="44.4" height="44.4"/>
        <rect class="cls-1" x="266.7" y="666.7" width="44.4" height="44.4"/>
        <rect class="cls-1" x="311.1" y="666.7" width="44.4" height="44.4"/>
        <rect class="cls-1" x="355.6" y="666.7" width="44.4" height="44.4"/>
        <rect class="cls-1" x="400" y="666.7" width="44.4" height="44.4"/>
        <rect class="cls-1" x="444.4" y="666.7" width="44.4" height="44.4"/>
        <rect class="cls-1" x="488.9" y="666.7" width="44.4" height="44.4"/>
        <rect class="cls-1" x="533.3" y="666.7" width="44.4" height="44.4"/>
        <rect class="cls-1" x="577.8" y="666.7" width="44.4" height="44.4"/>
        <rect class="cls-1" x="622.2" y="666.7" width="44.4" height="44.4"/>
        <rect class="cls-1" x="666.7" y="666.7" width="44.4" height="44.4"/>
        <rect class="cls-1" x="711.1" y="666.7" width="44.4" height="44.4"/>
        <rect class="cls-1" x="755.6" y="666.7" width="44.4" height="44.4"/>
        <rect class="cls-1" x="800" y="666.7" width="44.4" height="44.4"/>
        <rect class="cls-1" y="711.1" width="44.4" height="44.4"/>
        <rect class="cls-1" x="44.4" y="711.1" width="44.4" height="44.4"/>
        <rect class="cls-1" x="88.9" y="711.1" width="44.4" height="44.4"/>
        <rect class="cls-1" x="133.3" y="711.1" width="44.4" height="44.4"/>
        <rect class="cls-1" x="177.8" y="711.1" width="44.4" height="44.4"/>
        <rect class="cls-1" x="222.2" y="711.1" width="44.4" height="44.4"/>
        <rect class="cls-1" x="266.7" y="711.1" width="44.4" height="44.4"/>
        <rect class="cls-1" x="311.1" y="711.1" width="44.4" height="44.4"/>
        <rect class="cls-1" x="355.6" y="711.1" width="44.4" height="44.4"/>
        <rect class="cls-1" x="400" y="711.1" width="44.4" height="44.4"/>
        <rect class="cls-1" x="444.4" y="711.1" width="44.4" height="44.4"/>
        <rect class="cls-1" x="488.9" y="711.1" width="44.4" height="44.4"/>
        <rect class="cls-1" x="533.3" y="711.1" width="44.4" height="44.4"/>
        <rect class="cls-1" x="577.8" y="711.1" width="44.4" height="44.4"/>
        <rect class="cls-1" x="622.2" y="711.1" width="44.4" height="44.4"/>
        <rect class="cls-1" x="666.7" y="711.1" width="44.4" height="44.4"/>
        <rect class="cls-1" x="711.1" y="711.1" width="44.4" height="44.4"/>
        <rect class="cls-1" x="755.6" y="711.1" width="44.4" height="44.4"/>
        <rect class="cls-1" x="800" y="711.1" width="44.4" height="44.4"/>
        <rect class="cls-1" y="755.6" width="44.4" height="44.4"/>
        <rect class="cls-1" x="44.4" y="755.6" width="44.4" height="44.4"/>
        <rect class="cls-1" x="88.9" y="755.6" width="44.4" height="44.4"/>
        <rect class="cls-1" x="133.3" y="755.6" width="44.4" height="44.4"/>
        <rect class="cls-1" x="177.8" y="755.6" width="44.4" height="44.4"/>
        <rect class="cls-1" x="222.2" y="755.6" width="44.4" height="44.4"/>
        <rect class="cls-1" x="266.7" y="755.6" width="44.4" height="44.4"/>
        <rect class="cls-1" x="311.1" y="755.6" width="44.4" height="44.4"/>
        <rect class="cls-1" x="355.6" y="755.6" width="44.4" height="44.4"/>
        <rect class="cls-1" x="400" y="755.6" width="44.4" height="44.4"/>
        <rect class="cls-1" x="444.4" y="755.6" width="44.4" height="44.4"/>
        <rect class="cls-1" x="488.9" y="755.6" width="44.4" height="44.4"/>
        <rect class="cls-1" x="533.3" y="755.6" width="44.4" height="44.4"/>
        <rect class="cls-1" x="577.8" y="755.6" width="44.4" height="44.4"/>
        <rect class="cls-1" x="622.2" y="755.6" width="44.4" height="44.4"/>
        <rect class="cls-1" x="666.7" y="755.6" width="44.4" height="44.4"/>
        <rect class="cls-1" x="711.1" y="755.6" width="44.4" height="44.4"/>
        <rect class="cls-1" x="755.6" y="755.6" width="44.4" height="44.4"/>
        <rect class="cls-1" x="800" y="755.6" width="44.4" height="44.4"/>
        <rect class="cls-1" y="800" width="44.4" height="44.4"/>
        <rect class="cls-1" x="44.4" y="800" width="44.4" height="44.4"/>
        <rect class="cls-1" x="88.9" y="800" width="44.4" height="44.4"/>
        <rect class="cls-1" x="133.3" y="800" width="44.4" height="44.4"/>
        <rect class="cls-1" x="177.8" y="800" width="44.4" height="44.4"/>
        <rect class="cls-1" x="222.2" y="800" width="44.4" height="44.4"/>
        <rect class="cls-1" x="266.7" y="800" width="44.4" height="44.4"/>
        <rect class="cls-1" x="311.1" y="800" width="44.4" height="44.4"/>
        <rect class="cls-1" x="355.6" y="800" width="44.4" height="44.4"/>
        <rect class="cls-1" x="400" y="800" width="44.4" height="44.4"/>
        <rect class="cls-1" x="444.4" y="800" width="44.4" height="44.4"/>
        <rect class="cls-1" x="488.9" y="800" width="44.4" height="44.4"/>
        <rect class="cls-1" x="533.3" y="800" width="44.4" height="44.4"/>
        <rect class="cls-1" x="577.8" y="800" width="44.4" height="44.4"/>
        <rect class="cls-1" x="622.2" y="800" width="44.4" height="44.4"/>
        <rect class="cls-1" x="666.7" y="800" width="44.4" height="44.4"/>
        <rect class="cls-1" x="711.1" y="800" width="44.4" height="44.4"/>
        <rect class="cls-1" x="755.6" y="800" width="44.4" height="44.4"/>
        <rect class="cls-1" x="800" y="800" width="44.4" height="44.4"/>
      </g>
    </g>
  </g>
</svg>